<svg width="48" height="48" viewBox="0 0 48 48" fill="none" xmlns="http://www.w3.org/2000/svg">
<path d="M24 48C37.2548 48 48 37.2548 48 24C48 10.7452 37.2548 0 24 0C10.7452 0 0 10.7452 0 24C0 37.2548 10.7452 48 24 48Z" fill="#FFC225" fill-opacity="0.24"/>
<path d="M10 26.1152V34.5767C10 34.6889 10.0446 34.7965 10.1239 34.8758C10.2033 34.9552 10.3109 34.9997 10.4231 34.9997H36.6537C36.7659 34.9997 36.8735 34.9552 36.9529 34.8758C37.0322 34.7965 37.0768 34.6889 37.0768 34.5767V26.1152H10Z" fill="#00A0F7"/>
<path d="M10 28.6533H37.0768V30.7687H10V28.6533ZM10 32.884V34.5763C10 34.6885 10.0446 34.7961 10.1239 34.8755C10.2033 34.9548 10.3109 34.9994 10.4231 34.9994H36.6537C36.7659 34.9994 36.8735 34.9548 36.9529 34.8755C37.0322 34.7961 37.0768 34.6885 37.0768 34.5763V32.884H10Z" fill="#C1E5FF"/>
<path d="M36.6537 13H27.3461C27.2339 13 27.1263 13.0446 27.0469 13.1239C26.9676 13.2033 26.923 13.3109 26.923 13.4231V26.1152C26.923 26.2274 26.9676 26.335 27.0469 26.4144C27.1263 26.4937 27.2339 26.5383 27.3461 26.5383H37.0768V13.4231C37.0768 13.3109 37.0322 13.2033 36.9529 13.1239C36.8735 13.0446 36.7659 13 36.6537 13ZM19.7307 13H10.4231C10.3109 13 10.2033 13.0446 10.1239 13.1239C10.0446 13.2033 10 13.3109 10 13.4231V26.5383H19.7307C19.8429 26.5383 19.9505 26.4937 20.0299 26.4144C20.1092 26.335 20.1538 26.2274 20.1538 26.1152V13.4231C20.1538 13.3109 20.1092 13.2033 20.0299 13.1239C19.9505 13.0446 19.8429 13 19.7307 13Z" fill="#C1E5FF"/>
<path d="M19.3079 25.6924H27.7694V35H19.3079V25.6924Z" fill="#107EA0"/>
<path d="M19.7308 14.6924H14.2308C14.1186 14.6924 14.011 14.737 13.9317 14.8163C13.8523 14.8956 13.8078 15.0032 13.8078 15.1155C13.8078 15.5643 13.6295 15.9947 13.3121 16.3121C12.9947 16.6294 12.5643 16.8077 12.1155 16.8077C12.0033 16.8077 11.8956 16.8523 11.8163 16.9317C11.737 17.011 11.6924 17.1186 11.6924 17.2308V22.3077C11.6924 22.4199 11.737 22.5275 11.8163 22.6068C11.8956 22.6862 12.0033 22.7307 12.1155 22.7307C12.5643 22.7307 12.9947 22.909 13.3121 23.2264C13.6295 23.5438 13.8078 23.9742 13.8078 24.423C13.8078 24.5352 13.8523 24.6428 13.9317 24.7222C14.011 24.8015 14.1186 24.8461 14.2308 24.8461H19.7308C19.843 24.8461 19.9506 24.8015 20.03 24.7222C20.1093 24.6428 20.1539 24.5352 20.1539 24.423V15.1155C20.1539 15.0032 20.1093 14.8956 20.03 14.8163C19.9506 14.737 19.843 14.6924 19.7308 14.6924ZM34.9615 16.8077C34.5127 16.8077 34.0822 16.6294 33.7649 16.3121C33.4475 15.9947 33.2692 15.5643 33.2692 15.1155C33.2692 15.0032 33.2246 14.8956 33.1453 14.8163C33.0659 14.737 32.9583 14.6924 32.8461 14.6924H27.3462C27.2339 14.6924 27.1263 14.737 27.047 14.8163C26.9677 14.8956 26.9231 15.0032 26.9231 15.1155V24.423C26.9231 24.5352 26.9677 24.6428 27.047 24.7222C27.1263 24.8015 27.2339 24.8461 27.3462 24.8461H32.8461C32.9583 24.8461 33.0659 24.8015 33.1453 24.7222C33.2246 24.6428 33.2692 24.5352 33.2692 24.423C33.2692 23.9742 33.4475 23.5438 33.7649 23.2264C34.0822 22.909 34.5127 22.7307 34.9615 22.7307C35.0737 22.7307 35.1813 22.6862 35.2607 22.6068C35.34 22.5275 35.3846 22.4199 35.3846 22.3077V17.2308C35.3846 17.1186 35.34 17.011 35.2607 16.9317C35.1813 16.8523 35.0737 16.8077 34.9615 16.8077Z" fill="#107EA0"/>
<path d="M19.3079 13H27.7694V26.5383H19.3079V13Z" fill="#00A0F7"/>
<path d="M24.8547 20.5015C24.7625 20.2349 24.6089 19.9939 24.4061 19.7978C24.2034 19.6018 23.9573 19.4563 23.6879 19.3731C23.5465 19.334 23.4155 19.2645 23.3037 19.1695C23.192 19.0745 23.1023 18.9563 23.041 18.8231C23.0265 18.7562 23.0299 18.6867 23.051 18.6216C23.0721 18.5565 23.1101 18.4982 23.1611 18.4525C23.4619 18.0954 24.1118 18.5849 24.1173 18.5887C24.1611 18.623 24.2113 18.6482 24.2649 18.6631C24.3185 18.6779 24.3745 18.6821 24.4297 18.6753C24.4849 18.6685 24.5382 18.6509 24.5866 18.6235C24.635 18.5961 24.6775 18.5594 24.7117 18.5156C24.7459 18.4717 24.7712 18.4216 24.786 18.368C24.8009 18.3144 24.805 18.2584 24.7982 18.2032C24.7914 18.148 24.7738 18.0947 24.7464 18.0463C24.719 17.9979 24.6824 17.9554 24.6385 17.9211C24.4342 17.7656 24.2055 17.6453 23.9616 17.5649V17.2307C23.9616 17.1185 23.917 17.0109 23.8377 16.9315C23.7583 16.8522 23.6507 16.8076 23.5385 16.8076C23.4263 16.8076 23.3187 16.8522 23.2394 16.9315C23.16 17.0109 23.1154 17.1185 23.1154 17.2307V17.5175C22.879 17.5811 22.6687 17.7176 22.5143 17.9076C22.3767 18.0574 22.2781 18.2388 22.2272 18.4357C22.1763 18.6326 22.1746 18.8391 22.2223 19.0368C22.3145 19.3033 22.4682 19.5444 22.6709 19.7404C22.8736 19.9364 23.1197 20.0819 23.3892 20.1651C23.5305 20.2043 23.6616 20.2737 23.7733 20.3687C23.885 20.4637 23.9747 20.5819 24.0361 20.7151C24.0506 20.782 24.0471 20.8515 24.026 20.9166C24.0049 20.9817 23.9669 21.0401 23.9159 21.0857C23.6147 21.4424 22.9669 20.955 22.9585 20.9482C22.9145 20.9142 22.8643 20.8892 22.8107 20.8746C22.7571 20.86 22.7011 20.8561 22.646 20.8632C22.5909 20.8702 22.5377 20.888 22.4895 20.9156C22.4412 20.9432 22.3989 20.98 22.3649 21.0239C22.3309 21.0679 22.3059 21.1181 22.2913 21.1717C22.2767 21.2253 22.2728 21.2813 22.2798 21.3364C22.2869 21.3915 22.3047 21.4447 22.3323 21.493C22.3599 21.5412 22.3967 21.5835 22.4406 21.6175C22.645 21.7699 22.8729 21.8877 23.1154 21.9661V22.3075C23.1154 22.4198 23.16 22.5274 23.2394 22.6067C23.3187 22.686 23.4263 22.7306 23.5385 22.7306C23.6507 22.7306 23.7583 22.686 23.8377 22.6067C23.917 22.5274 23.9616 22.4198 23.9616 22.3075V22.0169C24.1976 21.9544 24.4079 21.8193 24.5628 21.6306C24.7004 21.4808 24.7989 21.2994 24.8498 21.1025C24.9008 20.9056 24.9024 20.6992 24.8547 20.5015Z" fill="#107EA0"/>
<path d="M19.8684 23.6133H19.8416V23.6482L19.8684 23.6133Z" fill="black"/>
</svg>
