<svg width="20" height="18" viewBox="0 0 20 18" fill="none" xmlns="http://www.w3.org/2000/svg">
<path d="M19.0502 15.7069L11.0613 0.870937C10.4951 -0.180938 8.98662 -0.180938 8.4199 0.870937L0.431461 15.7069C0.308514 15.9352 0.246874 16.1916 0.252558 16.4508C0.258241 16.7101 0.331054 16.9635 0.46389 17.1863C0.596726 17.409 0.785045 17.5935 1.01047 17.7217C1.23589 17.85 1.49071 17.9176 1.75005 17.918H17.7293C17.9888 17.918 18.2439 17.8507 18.4697 17.7226C18.6954 17.5945 18.8841 17.4101 19.0172 17.1873C19.1503 16.9644 19.2233 16.7109 19.2291 16.4514C19.2349 16.1919 19.1733 15.9354 19.0502 15.7069ZM9.74084 15.6211C9.55542 15.6211 9.37416 15.5661 9.21999 15.4631C9.06582 15.3601 8.94566 15.2137 8.8747 15.0424C8.80374 14.8711 8.78518 14.6826 8.82135 14.5007C8.85752 14.3188 8.94681 14.1518 9.07792 14.0207C9.20903 13.8896 9.37608 13.8003 9.55794 13.7641C9.7398 13.7279 9.9283 13.7465 10.0996 13.8175C10.2709 13.8884 10.4173 14.0086 10.5203 14.1627C10.6234 14.3169 10.6783 14.4982 10.6783 14.6836C10.6783 14.8067 10.6541 14.9286 10.607 15.0424C10.5599 15.1561 10.4908 15.2595 10.4037 15.3465C10.3167 15.4336 10.2133 15.5026 10.0996 15.5497C9.98586 15.5968 9.86395 15.6211 9.74084 15.6211ZM10.759 6.19219L10.4899 11.9109C10.4899 12.1098 10.4109 12.3006 10.2702 12.4413C10.1296 12.5819 9.93881 12.6609 9.7399 12.6609C9.54099 12.6609 9.35022 12.5819 9.20957 12.4413C9.06892 12.3006 8.9899 12.1098 8.9899 11.9109L8.72084 6.19453C8.71479 6.05793 8.73631 5.92151 8.7841 5.79341C8.8319 5.6653 8.905 5.54813 8.99905 5.44888C9.0931 5.34963 9.20616 5.27033 9.33151 5.2157C9.45686 5.16108 9.59192 5.13225 9.72865 5.13094H9.73849C9.87615 5.13087 10.0124 5.15869 10.139 5.21272C10.2656 5.26675 10.38 5.34587 10.4752 5.44531C10.5704 5.54475 10.6444 5.66245 10.6929 5.7913C10.7413 5.92015 10.7632 6.05748 10.7571 6.195L10.759 6.19219Z" fill="#FF4242"/>
</svg>
