<svg width="16" height="16" viewBox="0 0 16 16" fill="none" xmlns="http://www.w3.org/2000/svg">
<path fill-rule="evenodd" clip-rule="evenodd" d="M15.9688 8.00002C15.9688 12.3594 12.3516 15.9688 7.99998 15.9688C3.64062 15.9688 0.03125 12.3594 0.03125 8.00002C0.03125 3.64845 3.63278 0.03125 7.99218 0.03125C12.3438 0.03125 15.9688 3.64845 15.9688 8.00002ZM6.22655 11.625C6.45312 11.8906 6.65625 12.0078 6.92185 12.0078C7.19528 12.0078 7.41405 11.8828 7.58592 11.625L11.5547 5.36722C11.6562 5.21095 11.7578 5.02345 11.7578 4.85158C11.7578 4.47658 11.4219 4.25002 11.0781 4.25002C10.875 4.25002 10.6719 4.36722 10.5234 4.60938L6.89062 10.4297L5.02342 8.01565C4.83592 7.77345 4.64842 7.68752 4.42185 7.68752C4.07812 7.68752 3.78905 7.96878 3.78905 8.33595C3.78905 8.50782 3.85935 8.69532 3.97655 8.84375L6.22655 11.625Z" fill="#E0E0E0"/>
</svg>
