<svg width="24" height="25" viewBox="0 0 24 25" fill="none" xmlns="http://www.w3.org/2000/svg">
<path d="M12 22.5C17.4607 22.5 22 17.9706 22 12.5C22 7.03922 17.4509 2.5 11.9902 2.5C6.51956 2.5 2 7.03922 2 12.5C2 17.9706 6.52939 22.5 12 22.5ZM10.647 17.5294C10.3137 17.5294 10.0588 17.3824 9.77448 17.049L6.95095 13.5588C6.80388 13.3725 6.71566 13.1372 6.71566 12.9216C6.71566 12.4608 7.07841 12.1078 7.50976 12.1078C7.79408 12.1078 8.02937 12.2157 8.26467 12.5196L10.6078 15.549L15.1666 8.2451C15.3529 7.9412 15.6078 7.79413 15.8627 7.79413C16.2941 7.79413 16.7156 8.07845 16.7156 8.54903C16.7156 8.76471 16.5882 9 16.4607 9.1961L11.4803 17.049C11.2647 17.3725 10.9901 17.5294 10.647 17.5294Z" fill="#0C0F12"/>
</svg>
