<svg width="40" height="40" viewBox="0 0 40 40" fill="none" xmlns="http://www.w3.org/2000/svg">
<g clip-path="url(#clip0_435_4850)">
<circle cx="20" cy="20" r="19.1667" stroke="#EEF1F3" stroke-width="1.66667"/>
<path d="M38.2524 21.7168H1.74646V21.7173H38.2524V21.7168Z" fill="#C42126"/>
<path d="M36.3495 11.708H3.64771V11.7086H36.3495V11.708Z" fill="#C42126"/>
<path d="M37.6488 15.043H2.34741V15.0435H37.6488V15.043Z" fill="#C42126"/>
<path d="M9.54425 35.0607H30.4537L30.4548 35.0596H9.54309L9.54425 35.0607Z" fill="#C42126"/>
<path d="M19.9988 1.66699C19.6387 1.66699 19.2814 1.68 18.9268 1.70028H21.0711C20.7161 1.68 20.3589 1.66699 19.9988 1.66699Z" fill="#C42126"/>
<path d="M38.2571 18.3799H1.7395V18.3804H38.2571V18.3799Z" fill="#C42126"/>
<path d="M25.4176 8.37247H34.1726C33.1327 7.1065 31.9241 5.98583 30.5851 5.03711H24.0109C24.5549 5.99419 25.0227 7.12353 25.4176 8.37247Z" fill="#F3F4F5"/>
<path d="M24.0109 5.03641H30.5851C27.8673 3.11039 24.6044 1.90426 21.0707 1.7002H20.5062C22.1694 1.90953 22.9333 3.14043 24.0109 5.03641Z" fill="#E73625"/>
<path d="M37.6499 15.0434C37.3239 13.8807 36.8867 12.7653 36.3494 11.708H26.2771C26.4812 12.7789 26.6422 13.8975 26.7614 15.0434H37.6499Z" fill="#F3F4F5"/>
<path d="M25.7105 11.708H36.3491C35.7428 10.5155 35.0145 9.39658 34.1726 8.37207H24.8794C25.2071 9.40936 25.4853 10.5283 25.7105 11.708Z" fill="#E73625"/>
<path d="M27.1469 21.7155H38.2506C38.3033 21.1513 38.3331 20.5795 38.3331 20.0017C38.3331 19.4548 38.3045 18.9149 38.2576 18.3799H27.1495C27.1856 19.4892 27.185 20.6067 27.1469 21.7155Z" fill="#F3F4F5"/>
<path d="M38.258 18.3793C38.1575 17.2337 37.9512 16.1192 37.6498 15.0439H26.2936C26.4076 16.1362 26.4829 17.2537 26.5197 18.3793H38.258Z" fill="#E73625"/>
<path d="M26.0854 28.3886H36.3013C36.8462 27.3325 37.2902 26.2162 37.6232 25.0527H26.5794C26.4577 26.2003 26.2927 27.3187 26.0854 28.3886Z" fill="#F3F4F5"/>
<path d="M37.6234 25.0522C37.9312 23.9772 38.1448 22.8627 38.251 21.7168H26.801C26.7619 22.8433 26.6843 23.9604 26.568 25.0522H37.6234Z" fill="#E73625"/>
<path d="M30.4544 35.059C31.8128 34.1141 33.0385 32.9922 34.0949 31.7236H25.4924C25.0903 32.9778 24.6129 34.1053 24.0591 35.059H30.4544Z" fill="#F3F4F5"/>
<path d="M25.1688 31.7236H34.095C34.9467 30.7002 35.6861 29.5813 36.3012 28.3877H26.0104C25.782 29.5682 25.5009 30.6877 25.1688 31.7236Z" fill="#E73625"/>
<path d="M19.3339 38.3234C19.2969 38.3222 19.2599 38.3205 19.2228 38.3193C19.2599 38.3204 19.2969 38.3222 19.3339 38.3234Z" fill="#DC3027"/>
<path d="M19.9985 38.3375C23.8856 38.3375 27.4873 37.1242 30.4535 35.0615H23.8179C22.6402 37.0906 21.8632 38.3375 19.9985 38.3375Z" fill="#E73625"/>
<path d="M19.9982 38.3372C19.7756 38.3372 19.5544 38.332 19.3339 38.3242C19.5567 38.3317 19.7781 38.3372 19.9982 38.3372Z" fill="#C42126"/>
<path d="M24.6178 5.03711H9.41215C8.07294 5.98583 6.86457 7.10642 5.82434 8.37247H26.0242C25.6293 7.12353 25.1618 5.99419 24.6178 5.03711Z" fill="#F3F4F5"/>
<path d="M9.41223 5.03641H24.6179C23.5401 3.14043 22.1693 1.90953 20.5061 1.7002H18.9263C15.3927 1.90426 12.1297 3.11039 9.41223 5.03641Z" fill="#E73625"/>
<path d="M2.34766 15.0434H27.3396C27.2203 13.8972 27.0594 12.7789 26.8553 11.708H3.64808C3.11074 12.7653 2.67365 13.8807 2.34766 15.0434Z" fill="#F3F4F5"/>
<path d="M5.82446 8.37207C4.98319 9.39658 4.25424 10.5155 3.64832 11.708H26.8552C26.6303 10.5285 26.3521 9.40967 26.0243 8.37207C26.0243 8.37207 5.82446 8.37207 5.82446 8.37207Z" fill="#E73625"/>
<path d="M1.66382 20.0024C1.66382 20.5802 1.69393 21.152 1.74634 21.7162H27.5636C27.6019 20.6074 27.6024 19.4902 27.5663 18.3809H1.73938C1.69246 18.9156 1.66382 19.4555 1.66382 20.0024Z" fill="#F3F4F5"/>
<path d="M1.73926 18.3793H27.5658C27.5291 17.2535 27.4535 16.1363 27.3397 15.0439H2.3472C2.04582 16.1194 1.83943 17.2337 1.73926 18.3793Z" fill="#E73625"/>
<path d="M27.3303 25.0518H2.37366C2.70662 26.2155 3.15098 27.3316 3.69552 28.3877H26.8364C27.0437 27.3179 27.2084 26.1996 27.3303 25.0518Z" fill="#F3F4F5"/>
<path d="M2.37382 25.0522H27.3305C27.4466 23.9604 27.5244 22.843 27.5635 21.7168H1.74622C1.85243 22.8629 2.06641 23.9772 2.37382 25.0522Z" fill="#E73625"/>
<path d="M9.5428 35.059H24.5621C25.1159 34.1051 25.5935 32.9778 25.9954 31.7236H5.90234C6.95875 32.9922 8.18416 34.1141 9.5428 35.059Z" fill="#F3F4F5"/>
<path d="M3.69604 28.3877C4.31126 29.5813 5.05058 30.7002 5.9023 31.7236H25.9954C26.3272 30.6878 26.6083 29.5683 26.8366 28.3877H3.69604Z" fill="#E73625"/>
<path d="M19.2227 38.3195C19.2597 38.3207 19.2968 38.3224 19.3338 38.3235C19.5545 38.3313 19.7756 38.3365 19.9982 38.3365C21.8629 38.3365 23.3833 37.0897 24.5613 35.0605H9.54382C12.3112 36.9852 15.6329 38.1699 19.2227 38.3195Z" fill="#E73625"/>
<path d="M19.6193 1.67676C10.2237 1.8679 2.56574 9.1224 1.74158 18.3502H19.6196V1.67676H19.6193Z" fill="#283991"/>
<path d="M5.33233 12.0547L5.61164 12.9148H6.51662L5.78451 13.4466L6.06413 14.3073L5.33233 13.7752L4.60075 14.3073L4.87983 13.4466L4.14795 12.9148H5.05293L5.33233 12.0547Z" fill="#EFEFEF"/>
<path d="M5.33233 15.0938L5.61164 15.9544H6.51662L5.78451 16.4862L6.06413 17.3469L5.33233 16.8148L4.60075 17.3469L4.87983 16.4862L4.14795 15.9544H5.05293L5.33233 15.0938Z" fill="#EFEFEF"/>
<path d="M8.37158 7.49609L8.65097 8.35649H9.55564L8.82376 8.88864L9.10315 9.74872L8.37158 9.21719L7.63969 9.74872L7.91908 8.88864L7.18689 8.35649H8.09187L8.37158 7.49609Z" fill="#EFEFEF"/>
<path d="M8.37158 10.5352L8.65097 11.3955H9.55564L8.82376 11.9271L9.10315 12.7878L8.37158 12.2563L7.63969 12.7878L7.91908 11.9271L7.18689 11.3955H8.09187L8.37158 10.5352Z" fill="#EFEFEF"/>
<path d="M8.37158 13.5752L8.65097 14.4359H9.55564L8.82376 14.9671L9.10315 15.8278L8.37158 15.2957L7.63969 15.8278L7.91908 14.9671L7.18689 14.4359H8.09187L8.37158 13.5752Z" fill="#EFEFEF"/>
<path d="M3.02515 15.8271L2.74553 14.9664L3.47741 14.4349H2.57297L2.55269 14.3721C2.45336 14.6793 2.36364 14.9902 2.28088 15.3045L2.29366 15.295L3.02515 15.8271Z" fill="#EFEFEF"/>
<path d="M4.60099 11.2685L5.33256 10.7364L6.06445 11.2685L5.78482 10.4078L6.51671 9.87571H5.61172L5.33233 9.01562L5.05294 9.87571H4.71943C4.6575 9.96954 4.59758 10.0639 4.53735 10.1591L4.88015 10.4078L4.60099 11.2685Z" fill="#EFEFEF"/>
<path d="M8.37142 6.17801L9.10299 6.70954L8.8236 5.84946L9.55518 5.31738H9.03262C8.5888 5.64918 8.16062 6.00034 7.74923 6.37085L7.63892 6.70954L8.37142 6.17801Z" fill="#EFEFEF"/>
<path d="M10.679 5.19067L11.4108 4.65859L12.1424 5.19067L11.863 4.32996L12.5946 3.79843H11.6899L11.652 3.68262C11.3454 3.83923 11.042 4.00219 10.7455 4.1756L10.958 4.32989L10.679 5.19067Z" fill="#EFEFEF"/>
<path d="M11.4107 5.97754L11.6901 6.83739H12.5947L11.8629 7.36947L12.1423 8.23017L11.4107 7.69802L10.6788 8.23017L10.9582 7.36947L10.2261 6.83739H11.131L11.4107 5.97754Z" fill="#EFEFEF"/>
<path d="M11.4107 9.01562L11.6901 9.87548H12.5947L11.8629 10.4076L12.1423 11.2683L11.4107 10.7361L10.6788 11.2683L10.9582 10.4076L10.2261 9.87548H11.131L11.4107 9.01562Z" fill="#EFEFEF"/>
<path d="M11.4107 12.0547L11.6901 12.9148H12.5947L11.8629 13.4466L12.1423 14.3073L11.4107 13.7752L10.6788 14.3073L10.9582 13.4466L10.2261 12.9148H11.131L11.4107 12.0547Z" fill="#EFEFEF"/>
<path d="M11.4107 15.0938L11.6901 15.9544H12.5947L11.8629 16.4862L12.1423 17.3469L11.4107 16.8148L10.6788 17.3469L10.9582 16.4862L10.2261 15.9544H11.131L11.4107 15.0938Z" fill="#EFEFEF"/>
<path d="M14.45 4.45703L14.7294 5.31742H15.6341L14.9025 5.84958L15.1816 6.70966L14.45 6.17813L13.7179 6.70966L13.9975 5.84958L13.2654 5.31742H14.1703L14.45 4.45703Z" fill="#EFEFEF"/>
<path d="M14.45 7.49609L14.7294 8.35649H15.6341L14.9025 8.88864L15.1816 9.74872L14.45 9.21719L13.7179 9.74872L13.9975 8.88864L13.2654 8.35649H14.1703L14.45 7.49609Z" fill="#EFEFEF"/>
<path d="M14.45 10.5352L14.7294 11.3955H15.6341L14.9025 11.9271L15.1816 12.7878L14.45 12.2563L13.7179 12.7878L13.9975 11.9271L13.2654 11.3955H14.1703L14.45 10.5352Z" fill="#EFEFEF"/>
<path d="M14.45 13.5752L14.7294 14.4359H15.6341L14.9025 14.9671L15.1816 15.8278L14.45 15.2957L13.7179 15.8278L13.9975 14.9671L13.2654 14.4359H14.1703L14.45 13.5752Z" fill="#EFEFEF"/>
<path d="M17.4887 2.9375L17.7681 3.79789H18.6728L17.9409 4.32943L18.2203 5.19013L17.4887 4.65798L16.7566 5.19013L17.0362 4.32943L16.3041 3.79789H17.2088L17.4887 2.9375Z" fill="#EFEFEF"/>
<path d="M17.4887 5.97754L17.7681 6.83739H18.6728L17.9409 7.36947L18.2203 8.23017L17.4887 7.69802L16.7566 8.23017L17.0362 7.36947L16.3041 6.83739H17.2088L17.4887 5.97754Z" fill="#EFEFEF"/>
<path d="M17.4887 9.01562L17.7681 9.87548H18.6728L17.9409 10.4076L18.2203 11.2683L17.4887 10.7361L16.7566 11.2683L17.0362 10.4076L16.3041 9.87548H17.2088L17.4887 9.01562Z" fill="#EFEFEF"/>
<path d="M17.4887 12.0547L17.7681 12.9148H18.6728L17.9409 13.4466L18.2203 14.3073L17.4887 13.7752L16.7566 14.3073L17.0362 13.4466L16.3041 12.9148H17.2088L17.4887 12.0547Z" fill="#EFEFEF"/>
<path d="M17.4887 15.0938L17.7681 15.9544H18.6728L17.9409 16.4862L18.2203 17.3469L17.4887 16.8148L16.7566 17.3469L17.0362 16.4862L16.3041 15.9544H17.2088L17.4887 15.0938Z" fill="#EFEFEF"/>
</g>
<defs>
<clipPath id="clip0_435_4850">
<rect width="40" height="40" fill="white"/>
</clipPath>
</defs>
</svg>
