<svg width="40" height="40" viewBox="0 0 40 40" fill="none" xmlns="http://www.w3.org/2000/svg">
<g clip-path="url(#clip0_435_4853)">
<circle cx="20" cy="20" r="19.1667" stroke="#EEF1F3" stroke-width="1.66667"/>
<path d="M20.0009 38.334C30.1256 38.334 38.3334 30.1262 38.3334 20.0015C38.3334 9.87669 30.1256 1.66895 20.0009 1.66895C9.87608 1.66895 1.66833 9.87669 1.66833 20.0015C1.66833 30.1262 9.87608 38.334 20.0009 38.334Z" fill="white"/>
<path d="M37.2852 13.8885C37.2832 13.8827 37.2814 13.8778 37.2794 13.8725C34.933 7.25678 28.8978 2.38929 21.6465 1.74316C24.4524 3.28141 25.2718 8.15502 25.9898 13.8885C26.4801 17.8048 26.4833 22.12 25.9991 26.0412C25.2872 31.8058 24.4643 36.7137 21.6466 38.2584C28.9111 37.6111 34.9551 32.7268 37.2923 26.0933C37.2984 26.0756 37.3036 26.0583 37.3099 26.0412C37.9699 24.1495 38.3332 22.118 38.3332 20.0014C38.3328 17.8569 37.9614 15.8005 37.2852 13.8885Z" fill="#ED3432"/>
<path d="M26.9335 13.8877C26.2159 8.15409 24.4524 3.28056 21.6463 1.74231C21.1035 1.69424 20.5547 1.66699 19.9995 1.66699C12.0243 1.66699 5.24194 6.76067 2.71999 13.8717C2.71798 13.8769 2.7162 13.8819 2.71419 13.8877C2.03803 15.7997 1.66663 17.8562 1.66663 20.0004C1.66663 22.1174 2.0299 24.1486 2.68988 26.0403C2.696 26.0574 2.70149 26.0747 2.70753 26.0924C5.21957 33.2218 12.0112 38.3333 19.9995 38.3333C20.5547 38.3333 21.1035 38.306 21.6462 38.2574C24.464 36.7128 26.2309 31.8048 26.9427 26.0402C27.4271 22.1189 27.4239 17.804 26.9335 13.8877Z" fill="#ED3432"/>
<path d="M19.8358 10.6045L22.0136 17.3075H29.0619L23.3596 21.4494L25.5376 28.1531L19.8358 24.0102L14.1338 28.1531L16.3118 21.4494L10.6097 17.3075H17.6579L19.8358 10.6045Z" fill="#FDCE0C"/>
</g>
<defs>
<clipPath id="clip0_435_4853">
<rect width="40" height="40" fill="white"/>
</clipPath>
</defs>
</svg>
