<svg width="48" height="48" viewBox="0 0 48 48" fill="none" xmlns="http://www.w3.org/2000/svg">
<path d="M24 48C37.2548 48 48 37.2548 48 24C48 10.7452 37.2548 0 24 0C10.7452 0 0 10.7452 0 24C0 37.2548 10.7452 48 24 48Z" fill="#FFC225" fill-opacity="0.24"/>
<path d="M35.0271 15.8916H12.9728C12.6145 15.8916 12.3241 16.182 12.3241 16.5403V35.3513C12.3241 35.7096 12.6145 36 12.9728 36H35.0271C35.3854 36 35.6758 35.7096 35.6758 35.3513V16.5403C35.6758 16.182 35.3854 15.8916 35.0271 15.8916Z" fill="#A3DCE7"/>
<path d="M11.0269 17.1893L12.9728 12H35.0272L36.9732 17.1893H11.0269Z" fill="#4294FF"/>
<path d="M21.4054 17.1895V17.8381C21.4054 18.5262 21.6788 19.1862 22.1653 19.6728C22.6519 20.1594 23.3119 20.4327 24 20.4327C24.6882 20.4327 25.3481 20.1594 25.8347 19.6728C26.3213 19.1862 26.5947 18.5262 26.5947 17.8381V17.1895H21.4054Z" fill="#00A0F7"/>
<path d="M26.5946 17.1895V17.8381C26.5946 18.5262 26.868 19.1862 27.3546 19.6728C27.8411 20.1594 28.5011 20.4327 29.1892 20.4327C29.8774 20.4327 30.5373 20.1594 31.0239 19.6728C31.5105 19.1862 31.7839 18.5262 31.7839 17.8381V17.1895H26.5946Z" fill="#107EA0"/>
<path d="M31.7839 17.1895V17.8381C31.7839 18.5262 32.0573 19.1862 32.5438 19.6728C33.0304 20.1594 33.6904 20.4327 34.3785 20.4327C35.0667 20.4327 35.7266 20.1594 36.2132 19.6728C36.6998 19.1862 36.9732 18.5262 36.9732 17.8381V17.1895H31.7839ZM11.0269 17.1895V17.8381C11.0269 18.5262 11.3002 19.1862 11.7868 19.6728C12.2734 20.1594 12.9333 20.4327 13.6215 20.4327C14.3096 20.4327 14.9696 20.1594 15.4562 19.6728C15.9428 19.1862 16.2161 18.5262 16.2161 17.8381V17.1895H11.0269Z" fill="#00A0F7"/>
<path d="M16.2161 17.1893V17.8379C16.2161 18.5261 16.4895 19.186 16.9761 19.6726C17.4627 20.1592 18.1226 20.4325 18.8107 20.4325C19.4989 20.4325 20.1588 20.1592 20.6454 19.6726C21.132 19.186 21.4054 18.5261 21.4054 17.8379V17.1893H16.2161ZM17.5134 12L16.2161 17.1893H11.0269L12.9728 12H17.5134ZM36.9732 17.1893H31.7839L30.4866 12H35.0272L36.9732 17.1893ZM26.5946 17.1893H21.4054L22.054 12H25.946L26.5946 17.1893Z" fill="#107EA0"/>
<path d="M27.8919 23.0273H20.108C19.936 23.0273 19.771 23.0957 19.6493 23.2173C19.5277 23.339 19.4594 23.504 19.4594 23.676V36.0005H28.5406V23.676C28.5406 23.504 28.4722 23.339 28.3506 23.2173C28.2289 23.0957 28.0639 23.0273 27.8919 23.0273Z" fill="#107EA0"/>
<path d="M23.3513 23.0273H24.6486V36.0005H23.3513V23.0273Z" fill="#A3DCE7"/>
<path d="M35.6758 23.0273H31.1352C30.9631 23.0273 30.7981 23.0957 30.6765 23.2173C30.5548 23.339 30.4865 23.504 30.4865 23.676V30.1626C30.4865 30.3346 30.5548 30.4996 30.6765 30.6212C30.7981 30.7429 30.9631 30.8112 31.1352 30.8112H35.6758V23.0273ZM16.8647 23.0273H12.3241V30.8112H16.8647C17.0367 30.8112 17.2017 30.7429 17.3234 30.6212C17.445 30.4996 17.5134 30.3346 17.5134 30.1626V23.676C17.5134 23.504 17.445 23.339 17.3234 23.2173C17.2017 23.0957 17.0367 23.0273 16.8647 23.0273Z" fill="#107EA0"/>
<path d="M19.8691 23.6133H19.8417V23.6489L19.8691 23.6133Z" fill="black"/>
</svg>
