<svg width="48" height="48" viewBox="0 0 48 48" fill="none" xmlns="http://www.w3.org/2000/svg">
<path d="M24 48C37.2548 48 48 37.2548 48 24C48 10.7452 37.2548 0 24 0C10.7452 0 0 10.7452 0 24C0 37.2548 10.7452 48 24 48Z" fill="#FFC225" fill-opacity="0.24"/>
<path d="M30.6667 13.6667H34.6667C35.0203 13.6667 35.3594 13.8071 35.6095 14.0572C35.8595 14.3072 36 14.6464 36 15V33.6667C36 34.7275 35.5786 35.7449 34.8284 36.4951C34.0783 37.2452 33.0609 37.6667 32 37.6667H16C14.9391 37.6667 13.9217 37.2452 13.1716 36.4951C12.4214 35.7449 12 34.7275 12 33.6667V15C12 14.6464 12.1405 14.3072 12.3905 14.0572C12.6406 13.8071 12.9797 13.6667 13.3333 13.6667H17.3333V12.3333C17.3333 11.9797 17.4738 11.6406 17.7239 11.3905C17.9739 11.1405 18.313 11 18.6667 11C19.0203 11 19.3594 11.1405 19.6095 11.3905C19.8595 11.6406 20 11.9797 20 12.3333V13.6667H22.6667V12.3333C22.6667 11.9797 22.8071 11.6406 23.0572 11.3905C23.3072 11.1405 23.6464 11 24 11C24.3536 11 24.6928 11.1405 24.9428 11.3905C25.1929 11.6406 25.3333 11.9797 25.3333 12.3333V13.6667H28V12.3333C28 11.9797 28.1405 11.6406 28.3905 11.3905C28.6406 11.1405 28.9797 11 29.3333 11C29.687 11 30.0261 11.1405 30.2761 11.3905C30.5262 11.6406 30.6667 11.9797 30.6667 12.3333V13.6667Z" fill="#C1E5FF"/>
<path d="M29.3333 27H18.6667C18.313 27 17.9739 27.1405 17.7239 27.3905C17.4738 27.6406 17.3333 27.9797 17.3333 28.3333C17.3333 28.687 17.4738 29.0261 17.7239 29.2761C17.9739 29.5262 18.313 29.6667 18.6667 29.6667H29.3333C29.687 29.6667 30.0261 29.5262 30.2761 29.2761C30.5262 29.0261 30.6667 28.687 30.6667 28.3333C30.6667 27.9797 30.5262 27.6406 30.2761 27.3905C30.0261 27.1405 29.687 27 29.3333 27ZM29.3333 21.6667H21.3333C20.9797 21.6667 20.6406 21.8071 20.3905 22.0572C20.1405 22.3072 20 22.6464 20 23C20 23.3536 20.1405 23.6928 20.3905 23.9428C20.6406 24.1929 20.9797 24.3333 21.3333 24.3333H29.3333C29.687 24.3333 30.0261 24.1929 30.2761 23.9428C30.5262 23.6928 30.6667 23.3536 30.6667 23C30.6667 22.6464 30.5262 22.3072 30.2761 22.0572C30.0261 21.8071 29.687 21.6667 29.3333 21.6667ZM34.6667 13.6667H30.6667V12.3333C30.6667 11.9797 30.5262 11.6406 30.2761 11.3905C30.0261 11.1405 29.687 11 29.3333 11C28.9797 11 28.6406 11.1405 28.3905 11.3905C28.1405 11.6406 28 11.9797 28 12.3333V13.6667H25.3333V12.3333C25.3333 11.9797 25.1929 11.6406 24.9428 11.3905C24.6928 11.1405 24.3536 11 24 11C23.6464 11 23.3072 11.1405 23.0572 11.3905C22.8071 11.6406 22.6667 11.9797 22.6667 12.3333V13.6667H20V12.3333C20 11.9797 19.8595 11.6406 19.6095 11.3905C19.3594 11.1405 19.0203 11 18.6667 11C18.313 11 17.9739 11.1405 17.7239 11.3905C17.4738 11.6406 17.3333 11.9797 17.3333 12.3333V13.6667H13.3333C12.9797 13.6667 12.6406 13.8071 12.3905 14.0572C12.1405 14.3072 12 14.6464 12 15V33.6667C12 34.7275 12.4214 35.7449 13.1716 36.4951C13.9217 37.2452 14.9391 37.6667 16 37.6667H32C33.0609 37.6667 34.0783 37.2452 34.8284 36.4951C35.5786 35.7449 36 34.7275 36 33.6667V15C36 14.6464 35.8595 14.3072 35.6095 14.0572C35.3594 13.8071 35.0203 13.6667 34.6667 13.6667V13.6667ZM33.3333 33.6667C33.3333 34.0203 33.1929 34.3594 32.9428 34.6095C32.6928 34.8595 32.3536 35 32 35H16C15.6464 35 15.3072 34.8595 15.0572 34.6095C14.8071 34.3594 14.6667 34.0203 14.6667 33.6667V16.3333H17.3333V17.6667C17.3333 18.0203 17.4738 18.3594 17.7239 18.6095C17.9739 18.8595 18.313 19 18.6667 19C19.0203 19 19.3594 18.8595 19.6095 18.6095C19.8595 18.3594 20 18.0203 20 17.6667V16.3333H22.6667V17.6667C22.6667 18.0203 22.8071 18.3594 23.0572 18.6095C23.3072 18.8595 23.6464 19 24 19C24.3536 19 24.6928 18.8595 24.9428 18.6095C25.1929 18.3594 25.3333 18.0203 25.3333 17.6667V16.3333H28V17.6667C28 18.0203 28.1405 18.3594 28.3905 18.6095C28.6406 18.8595 28.9797 19 29.3333 19C29.687 19 30.0261 18.8595 30.2761 18.6095C30.5262 18.3594 30.6667 18.0203 30.6667 17.6667V16.3333H33.3333V33.6667Z" fill="#00A0F7"/>
<path d="M30.6667 12.3333V13.6667V16.3333V17.6667C30.6667 18.0203 30.5262 18.3594 30.2762 18.6095C30.0261 18.8595 29.687 19 29.3333 19C28.9797 19 28.6406 18.8595 28.3905 18.6095C28.1405 18.3594 28 18.0203 28 17.6667V16.3333V13.6667V12.3333C28 11.9797 28.1405 11.6406 28.3905 11.3905C28.6406 11.1405 28.9797 11 29.3333 11C29.687 11 30.0261 11.1405 30.2762 11.3905C30.5262 11.6406 30.6667 11.9797 30.6667 12.3333Z" fill="#107EA0"/>
<path d="M25.3333 12.3333V13.6667V16.3333V17.6667C25.3333 18.0203 25.1929 18.3594 24.9428 18.6095C24.6928 18.8595 24.3536 19 24 19C23.6464 19 23.3073 18.8595 23.0572 18.6095C22.8072 18.3594 22.6667 18.0203 22.6667 17.6667V16.3333V13.6667V12.3333C22.6667 11.9797 22.8072 11.6406 23.0572 11.3905C23.3073 11.1405 23.6464 11 24 11C24.3536 11 24.6928 11.1405 24.9428 11.3905C25.1929 11.6406 25.3333 11.9797 25.3333 12.3333Z" fill="#107EA0"/>
<path d="M20 12.3333V13.6667V16.3333V17.6667C20 18.0203 19.8595 18.3594 19.6095 18.6095C19.3594 18.8595 19.0203 19 18.6667 19C18.3131 19 17.9739 18.8595 17.7239 18.6095C17.4738 18.3594 17.3333 18.0203 17.3333 17.6667V16.3333V13.6667V12.3333C17.3333 11.9797 17.4738 11.6406 17.7239 11.3905C17.9739 11.1405 18.3131 11 18.6667 11C19.0203 11 19.3594 11.1405 19.6095 11.3905C19.8595 11.6406 20 11.9797 20 12.3333Z" fill="#107EA0"/>
</svg>
