<svg width="48" height="48" viewBox="0 0 48 48" fill="none" xmlns="http://www.w3.org/2000/svg">
<path d="M24 48C37.2548 48 48 37.2548 48 24C48 10.7452 37.2548 0 24 0C10.7452 0 0 10.7452 0 24C0 37.2548 10.7452 48 24 48Z" fill="#FFC225" fill-opacity="0.24"/>
<path d="M19.8687 23.6133H19.8413V23.6489L19.8687 23.6133Z" fill="black"/>
<g clip-path="url(#clip0_516_14408)">
<path d="M12.3752 22.875C12.2907 22.8752 12.2085 22.8467 12.1421 22.7943C12.0757 22.7419 12.029 22.6686 12.0096 22.5863C11.9901 22.504 11.9991 22.4175 12.0349 22.3409C12.0708 22.2643 12.1315 22.2021 12.2072 22.1644C12.3708 22.0835 12.5085 21.9584 12.6044 21.8032C12.7004 21.648 12.7509 21.469 12.7502 21.2865V15.375C12.7502 15.0766 12.8688 14.7905 13.0797 14.5795C13.2907 14.3685 13.5769 14.25 13.8752 14.25H14.6252C14.7247 14.25 14.8201 14.2895 14.8904 14.3598C14.9607 14.4302 15.0002 14.5255 15.0002 14.625C15.0002 14.7245 14.9607 14.8198 14.8904 14.8902C14.8201 14.9605 14.7247 15 14.6252 15H13.8752C13.7758 15 13.6804 15.0395 13.6101 15.1098C13.5397 15.1802 13.5002 15.2755 13.5002 15.375V21.2865C13.5017 21.6087 13.4127 21.9248 13.2435 22.199C13.0742 22.4731 12.8315 22.6944 12.5429 22.8375C12.4906 22.8628 12.4333 22.8756 12.3752 22.875Z" fill="#00A0F7"/>
<path d="M16.875 12H15.375C15.1679 12 15 12.1679 15 12.375V14.625C15 14.8321 15.1679 15 15.375 15H16.875C17.0821 15 17.25 14.8321 17.25 14.625V12.375C17.25 12.1679 17.0821 12 16.875 12Z" fill="#00A0F7"/>
<path d="M16.125 36C16.0255 36 15.9302 35.9605 15.8598 35.8902C15.7895 35.8198 15.75 35.7245 15.75 35.625V34.125C15.75 34.0255 15.7895 33.9302 15.8598 33.8598C15.9302 33.7895 16.0255 33.75 16.125 33.75C16.2245 33.75 16.3198 33.7895 16.3902 33.8598C16.4605 33.9302 16.5 34.0255 16.5 34.125V35.625C16.5 35.7245 16.4605 35.8198 16.3902 35.8902C16.3198 35.9605 16.2245 36 16.125 36Z" fill="#A3DCE7"/>
<path d="M17.625 14.25H14.25V31.5L15.7995 34.3125C15.8323 34.3699 15.8797 34.4175 15.9369 34.4507C15.994 34.4838 16.0589 34.5013 16.125 34.5013C16.1911 34.5013 16.256 34.4838 16.3131 34.4507C16.3703 34.4175 16.4177 34.3699 16.4505 34.3125L18 31.5V14.625C18 14.5255 17.9605 14.4302 17.8902 14.3598C17.8198 14.2895 17.7245 14.25 17.625 14.25Z" fill="#C1E5FF"/>
<path d="M35.625 13.5H19.125C18.9179 13.5 18.75 13.6679 18.75 13.875V35.625C18.75 35.8321 18.9179 36 19.125 36H35.625C35.8321 36 36 35.8321 36 35.625V13.875C36 13.6679 35.8321 13.5 35.625 13.5Z" fill="#C1E5FF"/>
<path d="M34.5 13.5H20.25V34.125C20.25 34.2245 20.2895 34.3198 20.3598 34.3902C20.4302 34.4605 20.5255 34.5 20.625 34.5H34.125C34.2245 34.5 34.3198 34.4605 34.3902 34.3902C34.4605 34.3198 34.5 34.2245 34.5 34.125V13.5Z" fill="#69BFFE"/>
<path d="M16.125 34.5C16.191 34.5001 16.2558 34.4829 16.3129 34.4499C16.3701 34.417 16.4175 34.3696 16.4505 34.3125L18 31.5H14.25L15.7995 34.3125C15.8325 34.3696 15.8799 34.417 15.9371 34.4499C15.9942 34.4829 16.059 34.5001 16.125 34.5ZM16.125 22.5C16.0255 22.5 15.9302 22.4605 15.8598 22.3902C15.7895 22.3198 15.75 22.2245 15.75 22.125V16.125C15.75 16.0255 15.7895 15.9302 15.8598 15.8598C15.9302 15.7895 16.0255 15.75 16.125 15.75C16.2245 15.75 16.3198 15.7895 16.3902 15.8598C16.4605 15.9302 16.5 16.0255 16.5 16.125V22.125C16.5 22.2245 16.4605 22.3198 16.3902 22.3902C16.3198 22.4605 16.2245 22.5 16.125 22.5Z" fill="#00A0F7"/>
<path d="M30.9375 13.5L29.925 12.15C29.8901 12.1034 29.8448 12.0656 29.7927 12.0396C29.7406 12.0136 29.6832 12 29.625 12H25.125C25.0668 12 25.0094 12.0136 24.9573 12.0396C24.9052 12.0656 24.8599 12.1034 24.825 12.15L23.8125 13.5H21.75V16.125C21.75 16.2245 21.7895 16.3198 21.8598 16.3902C21.9302 16.4605 22.0255 16.5 22.125 16.5H32.625C32.7245 16.5 32.8198 16.4605 32.8902 16.3902C32.9605 16.3198 33 16.2245 33 16.125V13.5H30.9375ZM32.625 17.625H25.5C25.4005 17.625 25.3052 17.6645 25.2348 17.7348C25.1645 17.8052 25.125 17.9005 25.125 18C25.125 18.0995 25.1645 18.1948 25.2348 18.2652C25.3052 18.3355 25.4005 18.375 25.5 18.375H32.625C32.7245 18.375 32.8198 18.3355 32.8902 18.2652C32.9605 18.1948 33 18.0995 33 18C33 17.9005 32.9605 17.8052 32.8902 17.7348C32.8198 17.6645 32.7245 17.625 32.625 17.625ZM32.625 19.125H25.5C25.4005 19.125 25.3052 19.1645 25.2348 19.2348C25.1645 19.3052 25.125 19.4005 25.125 19.5C25.125 19.5995 25.1645 19.6948 25.2348 19.7652C25.3052 19.8355 25.4005 19.875 25.5 19.875H32.625C32.7245 19.875 32.8198 19.8355 32.8902 19.7652C32.9605 19.6948 33 19.5995 33 19.5C33 19.4005 32.9605 19.3052 32.8902 19.2348C32.8198 19.1645 32.7245 19.125 32.625 19.125ZM32.625 20.625H25.5C25.4005 20.625 25.3052 20.6645 25.2348 20.7348C25.1645 20.8052 25.125 20.9005 25.125 21C25.125 21.0995 25.1645 21.1948 25.2348 21.2652C25.3052 21.3355 25.4005 21.375 25.5 21.375H32.625C32.7245 21.375 32.8198 21.3355 32.8902 21.2652C32.9605 21.1948 33 21.0995 33 21C33 20.9005 32.9605 20.8052 32.8902 20.7348C32.8198 20.6645 32.7245 20.625 32.625 20.625ZM32.625 22.125H25.5C25.4005 22.125 25.3052 22.1645 25.2348 22.2348C25.1645 22.3052 25.125 22.4005 25.125 22.5C25.125 22.5995 25.1645 22.6948 25.2348 22.7652C25.3052 22.8355 25.4005 22.875 25.5 22.875H32.625C32.7245 22.875 32.8198 22.8355 32.8902 22.7652C32.9605 22.6948 33 22.5995 33 22.5C33 22.4005 32.9605 22.3052 32.8902 22.2348C32.8198 22.1645 32.7245 22.125 32.625 22.125ZM32.625 23.625H22.5C22.4005 23.625 22.3052 23.6645 22.2348 23.7348C22.1645 23.8052 22.125 23.9005 22.125 24C22.125 24.0995 22.1645 24.1948 22.2348 24.2652C22.3052 24.3355 22.4005 24.375 22.5 24.375H32.625C32.7245 24.375 32.8198 24.3355 32.8902 24.2652C32.9605 24.1948 33 24.0995 33 24C33 23.9005 32.9605 23.8052 32.8902 23.7348C32.8198 23.6645 32.7245 23.625 32.625 23.625ZM32.625 25.125H22.5C22.4005 25.125 22.3052 25.1645 22.2348 25.2348C22.1645 25.3052 22.125 25.4005 22.125 25.5C22.125 25.5995 22.1645 25.6948 22.2348 25.7652C22.3052 25.8355 22.4005 25.875 22.5 25.875H32.625C32.7245 25.875 32.8198 25.8355 32.8902 25.7652C32.9605 25.6948 33 25.5995 33 25.5C33 25.4005 32.9605 25.3052 32.8902 25.2348C32.8198 25.1645 32.7245 25.125 32.625 25.125ZM32.625 26.625H22.5C22.4005 26.625 22.3052 26.6645 22.2348 26.7348C22.1645 26.8052 22.125 26.9005 22.125 27C22.125 27.0995 22.1645 27.1948 22.2348 27.2652C22.3052 27.3355 22.4005 27.375 22.5 27.375H32.625C32.7245 27.375 32.8198 27.3355 32.8902 27.2652C32.9605 27.1948 33 27.0995 33 27C33 26.9005 32.9605 26.8052 32.8902 26.7348C32.8198 26.6645 32.7245 26.625 32.625 26.625ZM32.625 28.125H22.5C22.4005 28.125 22.3052 28.1645 22.2348 28.2348C22.1645 28.3052 22.125 28.4005 22.125 28.5C22.125 28.5995 22.1645 28.6948 22.2348 28.7652C22.3052 28.8355 22.4005 28.875 22.5 28.875H32.625C32.7245 28.875 32.8198 28.8355 32.8902 28.7652C32.9605 28.6948 33 28.5995 33 28.5C33 28.4005 32.9605 28.3052 32.8902 28.2348C32.8198 28.1645 32.7245 28.125 32.625 28.125ZM32.625 29.625H22.5C22.4005 29.625 22.3052 29.6645 22.2348 29.7348C22.1645 29.8052 22.125 29.9005 22.125 30C22.125 30.0995 22.1645 30.1948 22.2348 30.2652C22.3052 30.3355 22.4005 30.375 22.5 30.375H32.625C32.7245 30.375 32.8198 30.3355 32.8902 30.2652C32.9605 30.1948 33 30.0995 33 30C33 29.9005 32.9605 29.8052 32.8902 29.7348C32.8198 29.6645 32.7245 29.625 32.625 29.625ZM32.625 31.125H22.5C22.4005 31.125 22.3052 31.1645 22.2348 31.2348C22.1645 31.3052 22.125 31.4005 22.125 31.5C22.125 31.5995 22.1645 31.6948 22.2348 31.7652C22.3052 31.8355 22.4005 31.875 22.5 31.875H32.625C32.7245 31.875 32.8198 31.8355 32.8902 31.7652C32.9605 31.6948 33 31.5995 33 31.5C33 31.4005 32.9605 31.3052 32.8902 31.2348C32.8198 31.1645 32.7245 31.125 32.625 31.125ZM32.625 32.625H22.5C22.4005 32.625 22.3052 32.6645 22.2348 32.7348C22.1645 32.8052 22.125 32.9005 22.125 33C22.125 33.0995 22.1645 33.1948 22.2348 33.2652C22.3052 33.3355 22.4005 33.375 22.5 33.375H32.625C32.7245 33.375 32.8198 33.3355 32.8902 33.2652C32.9605 33.1948 33 33.0995 33 33C33 32.9005 32.9605 32.8052 32.8902 32.7348C32.8198 32.6645 32.7245 32.625 32.625 32.625Z" fill="#107EA0"/>
</g>
<defs>
<clipPath id="clip0_516_14408">
<rect width="24" height="24" fill="white" transform="translate(12 12)"/>
</clipPath>
</defs>
</svg>
