<svg width="198" height="69" viewBox="0 0 198 69" fill="none" xmlns="http://www.w3.org/2000/svg">
    <rect width="198" height="69" rx="8" fill="#051237" />
    <path
        d="M71.144 16.796H73.874C74.2987 16.796 74.7017 16.8393 75.083 16.926C75.473 17.004 75.8153 17.1427 76.11 17.342C76.4133 17.5327 76.6517 17.7927 76.825 18.122C77.007 18.4427 77.098 18.8413 77.098 19.318C77.098 19.8207 77.0027 20.2367 76.812 20.566C76.6213 20.8953 76.3743 21.1553 76.071 21.346C75.7763 21.5367 75.4513 21.671 75.096 21.749C74.7407 21.827 74.4027 21.866 74.082 21.866H72.236V26H71.144V16.796ZM72.236 20.852H74.082C74.628 20.852 75.07 20.7307 75.408 20.488C75.7547 20.2367 75.928 19.851 75.928 19.331C75.928 18.811 75.7547 18.4297 75.408 18.187C75.07 17.9357 74.628 17.81 74.082 17.81H72.236V20.852ZM83.9721 24.557C83.9721 24.8343 83.9807 25.0943 83.9981 25.337C84.0154 25.5797 84.0241 25.8007 84.0241 26H83.0621C83.0621 25.8353 83.0577 25.6707 83.0491 25.506C83.0404 25.3413 83.0361 25.1723 83.0361 24.999H83.0101C82.9407 25.1463 82.8411 25.2893 82.7111 25.428C82.5897 25.5667 82.4424 25.6923 82.2691 25.805C82.0957 25.909 81.9007 25.9913 81.6841 26.052C81.4674 26.1213 81.2334 26.156 80.9821 26.156C80.5834 26.156 80.2367 26.0953 79.9421 25.974C79.6561 25.8527 79.4177 25.6837 79.2271 25.467C79.0364 25.2503 78.8934 24.9903 78.7981 24.687C78.7114 24.375 78.6681 24.037 78.6681 23.673V19.916H79.6821V23.569C79.6821 24.0803 79.7947 24.4833 80.0201 24.778C80.2454 25.0727 80.5964 25.22 81.0731 25.22C81.4024 25.22 81.6841 25.1637 81.9181 25.051C82.1607 24.9383 82.3557 24.778 82.5031 24.57C82.6591 24.362 82.7717 24.115 82.8411 23.829C82.9191 23.543 82.9581 23.2267 82.9581 22.88V19.916H83.9721V24.557ZM85.8917 21.359C85.8917 21.0817 85.883 20.8217 85.8657 20.579C85.8484 20.3363 85.8397 20.1153 85.8397 19.916H86.8017C86.8017 20.0807 86.806 20.2453 86.8147 20.41C86.8234 20.5747 86.8277 20.7437 86.8277 20.917H86.8537C86.923 20.7697 87.0184 20.6267 87.1397 20.488C87.2697 20.3493 87.4214 20.228 87.5947 20.124C87.768 20.0113 87.963 19.9247 88.1797 19.864C88.3964 19.7947 88.6304 19.76 88.8817 19.76C88.951 19.76 89.0204 19.7643 89.0897 19.773C89.159 19.7817 89.2284 19.799 89.2977 19.825L89.2327 20.852C89.0594 20.8 88.8774 20.774 88.6867 20.774C88.0627 20.774 87.6077 20.9777 87.3217 21.385C87.0444 21.7837 86.9057 22.334 86.9057 23.036V26H85.8917V21.359ZM94.5625 21.437C94.3458 21.177 94.1118 20.9907 93.8605 20.878C93.6092 20.7567 93.3318 20.696 93.0285 20.696C92.6905 20.696 92.3915 20.7567 92.1315 20.878C91.8715 20.9907 91.6548 21.151 91.4815 21.359C91.3168 21.567 91.1912 21.8097 91.1045 22.087C91.0178 22.3557 90.9745 22.646 90.9745 22.958C90.9745 23.27 91.0222 23.5647 91.1175 23.842C91.2215 24.1107 91.3602 24.349 91.5335 24.557C91.7155 24.765 91.9322 24.9297 92.1835 25.051C92.4348 25.1637 92.7165 25.22 93.0285 25.22C93.6958 25.22 94.2115 24.9687 94.5755 24.466L95.3295 25.181C95.0348 25.519 94.6882 25.766 94.2895 25.922C93.8908 26.078 93.4705 26.156 93.0285 26.156C92.5605 26.156 92.1315 26.078 91.7415 25.922C91.3515 25.766 91.0178 25.545 90.7405 25.259C90.4718 24.973 90.2595 24.635 90.1035 24.245C89.9562 23.855 89.8825 23.426 89.8825 22.958C89.8825 22.4987 89.9562 22.074 90.1035 21.684C90.2595 21.294 90.4762 20.956 90.7535 20.67C91.0308 20.384 91.3602 20.163 91.7415 20.007C92.1315 19.8423 92.5605 19.76 93.0285 19.76C93.4792 19.76 93.9038 19.838 94.3025 19.994C94.7098 20.15 95.0652 20.3927 95.3685 20.722L94.5625 21.437ZM96.505 16.172H97.519V20.761H97.545C97.6143 20.6397 97.7096 20.5227 97.831 20.41C97.9523 20.2887 98.0953 20.1803 98.26 20.085C98.4333 19.9897 98.624 19.9117 98.832 19.851C99.04 19.7903 99.261 19.76 99.495 19.76C99.8936 19.76 100.236 19.8207 100.522 19.942C100.817 20.0633 101.059 20.2323 101.25 20.449C101.441 20.6657 101.579 20.93 101.666 21.242C101.761 21.5453 101.809 21.879 101.809 22.243V26H100.795V22.347C100.795 21.8357 100.682 21.4327 100.457 21.138C100.232 20.8433 99.8806 20.696 99.404 20.696C99.0746 20.696 98.7886 20.7523 98.546 20.865C98.312 20.9777 98.117 21.138 97.961 21.346C97.8136 21.554 97.701 21.801 97.623 22.087C97.5536 22.373 97.519 22.6893 97.519 23.036V26H96.505V16.172ZM103.651 20.696C103.963 20.3753 104.331 20.1413 104.756 19.994C105.189 19.838 105.627 19.76 106.069 19.76C106.97 19.76 107.62 19.9723 108.019 20.397C108.417 20.8217 108.617 21.4673 108.617 22.334V24.947C108.617 25.1203 108.625 25.3023 108.643 25.493C108.66 25.675 108.682 25.844 108.708 26H107.733C107.698 25.8613 107.676 25.7097 107.668 25.545C107.668 25.3717 107.668 25.22 107.668 25.09H107.642C107.442 25.402 107.174 25.6577 106.836 25.857C106.506 26.0563 106.108 26.156 105.64 26.156C105.328 26.156 105.033 26.117 104.756 26.039C104.487 25.961 104.249 25.8483 104.041 25.701C103.841 25.545 103.681 25.3543 103.56 25.129C103.438 24.9037 103.378 24.6437 103.378 24.349C103.378 23.8463 103.508 23.452 103.768 23.166C104.028 22.88 104.348 22.6677 104.73 22.529C105.12 22.3903 105.536 22.3037 105.978 22.269C106.428 22.2343 106.84 22.217 107.213 22.217H107.603V22.035C107.603 21.593 107.468 21.2593 107.2 21.034C106.94 20.8087 106.571 20.696 106.095 20.696C105.765 20.696 105.44 20.7523 105.12 20.865C104.808 20.969 104.53 21.1337 104.288 21.359L103.651 20.696ZM106.589 23.075C105.939 23.075 105.423 23.166 105.042 23.348C104.66 23.53 104.47 23.829 104.47 24.245C104.47 24.6263 104.595 24.8993 104.847 25.064C105.107 25.22 105.427 25.298 105.809 25.298C106.103 25.298 106.359 25.2503 106.576 25.155C106.801 25.051 106.987 24.9167 107.135 24.752C107.282 24.5873 107.395 24.3967 107.473 24.18C107.551 23.9547 107.594 23.7163 107.603 23.465V23.075H106.589ZM110.6 24.401C110.799 24.6523 111.016 24.8517 111.25 24.999C111.492 25.1463 111.796 25.22 112.16 25.22C112.316 25.22 112.472 25.2027 112.628 25.168C112.792 25.1333 112.94 25.077 113.07 24.999C113.2 24.921 113.304 24.8257 113.382 24.713C113.46 24.5917 113.499 24.4487 113.499 24.284C113.499 24.1193 113.46 23.985 113.382 23.881C113.312 23.777 113.217 23.6903 113.096 23.621C112.974 23.543 112.836 23.4823 112.68 23.439C112.524 23.3957 112.363 23.3567 112.199 23.322C111.913 23.2613 111.64 23.192 111.38 23.114C111.12 23.036 110.89 22.9363 110.691 22.815C110.5 22.685 110.344 22.5203 110.223 22.321C110.11 22.1217 110.054 21.866 110.054 21.554C110.054 21.2593 110.119 20.9993 110.249 20.774C110.379 20.5487 110.552 20.3623 110.769 20.215C110.985 20.0677 111.228 19.955 111.497 19.877C111.765 19.799 112.043 19.76 112.329 19.76C112.762 19.76 113.161 19.8467 113.525 20.02C113.897 20.1933 114.188 20.475 114.396 20.865L113.551 21.424C113.421 21.2073 113.247 21.034 113.031 20.904C112.823 20.7653 112.567 20.696 112.264 20.696C112.125 20.696 111.982 20.7133 111.835 20.748C111.696 20.7827 111.57 20.8347 111.458 20.904C111.345 20.9733 111.25 21.0643 111.172 21.177C111.102 21.281 111.068 21.4023 111.068 21.541C111.068 21.671 111.107 21.7837 111.185 21.879C111.271 21.9657 111.384 22.0437 111.523 22.113C111.67 22.1823 111.835 22.243 112.017 22.295C112.207 22.347 112.402 22.3903 112.602 22.425C112.87 22.477 113.126 22.5463 113.369 22.633C113.611 22.711 113.824 22.8193 114.006 22.958C114.188 23.0967 114.331 23.27 114.435 23.478C114.539 23.686 114.591 23.9417 114.591 24.245C114.591 24.5917 114.521 24.8863 114.383 25.129C114.244 25.3717 114.058 25.571 113.824 25.727C113.598 25.8743 113.338 25.9827 113.044 26.052C112.758 26.1213 112.463 26.156 112.16 26.156C111.64 26.156 111.189 26.078 110.808 25.922C110.435 25.7573 110.097 25.4583 109.794 25.025L110.6 24.401ZM121.439 24.895C121.075 25.363 120.676 25.6923 120.243 25.883C119.81 26.065 119.307 26.156 118.735 26.156C118.258 26.156 117.829 26.0737 117.448 25.909C117.067 25.7357 116.742 25.506 116.473 25.22C116.213 24.934 116.009 24.596 115.862 24.206C115.723 23.816 115.654 23.4 115.654 22.958C115.654 22.49 115.732 22.061 115.888 21.671C116.044 21.2723 116.261 20.9343 116.538 20.657C116.815 20.371 117.145 20.15 117.526 19.994C117.907 19.838 118.323 19.76 118.774 19.76C119.199 19.76 119.589 19.8337 119.944 19.981C120.299 20.1197 120.603 20.3277 120.854 20.605C121.114 20.8737 121.313 21.2073 121.452 21.606C121.591 21.996 121.66 22.4423 121.66 22.945V23.27H116.746C116.763 23.53 116.824 23.7813 116.928 24.024C117.041 24.258 117.184 24.466 117.357 24.648C117.53 24.8213 117.734 24.96 117.968 25.064C118.202 25.168 118.458 25.22 118.735 25.22C119.177 25.22 119.55 25.142 119.853 24.986C120.156 24.83 120.429 24.6003 120.672 24.297L121.439 24.895ZM120.568 22.412C120.551 21.892 120.382 21.476 120.061 21.164C119.74 20.852 119.298 20.696 118.735 20.696C118.172 20.696 117.717 20.852 117.37 21.164C117.023 21.476 116.815 21.892 116.746 22.412H120.568ZM133.204 17.81H130.162V26H129.07V17.81H126.028V16.796H133.204V17.81ZM138.771 26.234C138.069 26.234 137.423 26.1127 136.834 25.87C136.253 25.6273 135.746 25.2937 135.313 24.869C134.888 24.4357 134.554 23.9243 134.312 23.335C134.078 22.737 133.961 22.0913 133.961 21.398C133.961 20.7047 134.078 20.0633 134.312 19.474C134.554 18.876 134.888 18.3647 135.313 17.94C135.746 17.5067 136.253 17.1687 136.834 16.926C137.423 16.6833 138.069 16.562 138.771 16.562C139.473 16.562 140.114 16.6833 140.695 16.926C141.284 17.1687 141.791 17.5067 142.216 17.94C142.649 18.3647 142.983 18.876 143.217 19.474C143.459 20.0633 143.581 20.7047 143.581 21.398C143.581 22.0913 143.459 22.737 143.217 23.335C142.983 23.9243 142.649 24.4357 142.216 24.869C141.791 25.2937 141.284 25.6273 140.695 25.87C140.114 26.1127 139.473 26.234 138.771 26.234ZM138.771 25.22C139.308 25.22 139.798 25.1203 140.24 24.921C140.69 24.7217 141.076 24.4487 141.397 24.102C141.717 23.7553 141.964 23.3523 142.138 22.893C142.32 22.425 142.411 21.9267 142.411 21.398C142.411 20.8693 142.32 20.3753 142.138 19.916C141.964 19.448 141.717 19.0407 141.397 18.694C141.076 18.3473 140.69 18.0743 140.24 17.875C139.798 17.6757 139.308 17.576 138.771 17.576C138.233 17.576 137.739 17.6757 137.289 17.875C136.847 18.0743 136.465 18.3473 136.145 18.694C135.824 19.0407 135.573 19.448 135.391 19.916C135.217 20.3753 135.131 20.8693 135.131 21.398C135.131 21.9267 135.217 22.425 135.391 22.893C135.573 23.3523 135.824 23.7553 136.145 24.102C136.465 24.4487 136.847 24.7217 137.289 24.921C137.739 25.1203 138.233 25.22 138.771 25.22ZM145.335 16.796H146.427V20.774H146.583L150.769 16.796H152.342L147.792 20.995L152.563 26H150.964L146.583 21.32H146.427V26H145.335V16.796ZM157.801 26.234C157.099 26.234 156.453 26.1127 155.864 25.87C155.283 25.6273 154.776 25.2937 154.343 24.869C153.918 24.4357 153.585 23.9243 153.342 23.335C153.108 22.737 152.991 22.0913 152.991 21.398C152.991 20.7047 153.108 20.0633 153.342 19.474C153.585 18.876 153.918 18.3647 154.343 17.94C154.776 17.5067 155.283 17.1687 155.864 16.926C156.453 16.6833 157.099 16.562 157.801 16.562C158.503 16.562 159.144 16.6833 159.725 16.926C160.314 17.1687 160.821 17.5067 161.246 17.94C161.679 18.3647 162.013 18.876 162.247 19.474C162.49 20.0633 162.611 20.7047 162.611 21.398C162.611 22.0913 162.49 22.737 162.247 23.335C162.013 23.9243 161.679 24.4357 161.246 24.869C160.821 25.2937 160.314 25.6273 159.725 25.87C159.144 26.1127 158.503 26.234 157.801 26.234ZM157.801 25.22C158.338 25.22 158.828 25.1203 159.27 24.921C159.721 24.7217 160.106 24.4487 160.427 24.102C160.748 23.7553 160.995 23.3523 161.168 22.893C161.35 22.425 161.441 21.9267 161.441 21.398C161.441 20.8693 161.35 20.3753 161.168 19.916C160.995 19.448 160.748 19.0407 160.427 18.694C160.106 18.3473 159.721 18.0743 159.27 17.875C158.828 17.6757 158.338 17.576 157.801 17.576C157.264 17.576 156.77 17.6757 156.319 17.875C155.877 18.0743 155.496 18.3473 155.175 18.694C154.854 19.0407 154.603 19.448 154.421 19.916C154.248 20.3753 154.161 20.8693 154.161 21.398C154.161 21.9267 154.248 22.425 154.421 22.893C154.603 23.3523 154.854 23.7553 155.175 24.102C155.496 24.4487 155.877 24.7217 156.319 24.921C156.77 25.1203 157.264 25.22 157.801 25.22ZM167.451 22.958C167.451 22.4813 167.533 22.048 167.698 21.658C167.863 21.268 168.088 20.9343 168.374 20.657C168.66 20.371 169.002 20.15 169.401 19.994C169.8 19.838 170.233 19.76 170.701 19.76C171.169 19.76 171.602 19.838 172.001 19.994C172.4 20.15 172.742 20.371 173.028 20.657C173.314 20.9343 173.539 21.268 173.704 21.658C173.869 22.048 173.951 22.4813 173.951 22.958C173.951 23.4347 173.869 23.868 173.704 24.258C173.539 24.648 173.314 24.986 173.028 25.272C172.742 25.5493 172.4 25.766 172.001 25.922C171.602 26.078 171.169 26.156 170.701 26.156C170.233 26.156 169.8 26.078 169.401 25.922C169.002 25.766 168.66 25.5493 168.374 25.272C168.088 24.986 167.863 24.648 167.698 24.258C167.533 23.868 167.451 23.4347 167.451 22.958ZM168.543 22.958C168.543 23.2787 168.591 23.5777 168.686 23.855C168.79 24.1237 168.937 24.362 169.128 24.57C169.319 24.7693 169.544 24.9297 169.804 25.051C170.073 25.1637 170.372 25.22 170.701 25.22C171.03 25.22 171.325 25.1637 171.585 25.051C171.854 24.9297 172.083 24.7693 172.274 24.57C172.465 24.362 172.608 24.1237 172.703 23.855C172.807 23.5777 172.859 23.2787 172.859 22.958C172.859 22.6373 172.807 22.3427 172.703 22.074C172.608 21.7967 172.465 21.5583 172.274 21.359C172.083 21.151 171.854 20.9907 171.585 20.878C171.325 20.7567 171.03 20.696 170.701 20.696C170.372 20.696 170.073 20.7567 169.804 20.878C169.544 20.9907 169.319 21.151 169.128 21.359C168.937 21.5583 168.79 21.7967 168.686 22.074C168.591 22.3427 168.543 22.6373 168.543 22.958ZM175.521 21.359C175.521 21.0817 175.512 20.8217 175.495 20.579C175.477 20.3363 175.469 20.1153 175.469 19.916H176.431C176.431 20.0807 176.435 20.2453 176.444 20.41C176.452 20.5747 176.457 20.7437 176.457 20.917H176.483C176.552 20.7697 176.647 20.6267 176.769 20.488C176.899 20.3493 177.05 20.228 177.224 20.124C177.397 20.0113 177.592 19.9247 177.809 19.864C178.025 19.7947 178.259 19.76 178.511 19.76C178.909 19.76 179.252 19.8207 179.538 19.942C179.832 20.0633 180.075 20.2323 180.266 20.449C180.456 20.6657 180.595 20.93 180.682 21.242C180.777 21.5453 180.825 21.879 180.825 22.243V26H179.811V22.347C179.811 21.8357 179.698 21.4327 179.473 21.138C179.247 20.8433 178.896 20.696 178.42 20.696C178.09 20.696 177.804 20.7523 177.562 20.865C177.328 20.9777 177.133 21.138 176.977 21.346C176.829 21.554 176.717 21.801 176.639 22.087C176.569 22.373 176.535 22.6893 176.535 23.036V26H175.521V21.359Z"
        fill="white" />
    <path
        d="M71.44 35.84H76.16L79.42 45.08H79.46L82.74 35.84H87.44V50H84.32V39.14H84.28L80.56 50H78.18L74.6 39.14H74.56V50H71.44V35.84ZM95.5467 51.58C95.3467 52.1 95.1534 52.56 94.9667 52.96C94.7801 53.36 94.5401 53.6933 94.2467 53.96C93.9667 54.24 93.6067 54.4467 93.1667 54.58C92.7267 54.7267 92.1467 54.8 91.4267 54.8C90.6534 54.8 89.9067 54.68 89.1867 54.44L89.5867 51.98C90.0401 52.18 90.5067 52.28 90.9867 52.28C91.3201 52.28 91.5934 52.24 91.8067 52.16C92.0201 52.0933 92.1934 51.9867 92.3267 51.84C92.4734 51.7067 92.5934 51.54 92.6867 51.34C92.7801 51.14 92.8801 50.9067 92.9867 50.64L93.2067 50.08L88.9467 40.28H92.1867L94.6867 46.7H94.7267L96.8667 40.28H99.9467L95.5467 51.58ZM105.42 46.22H100.5V43.82H105.42V46.22ZM110.098 38.6H106.058V35.84H117.258V38.6H113.218V50H110.098V38.6ZM123.28 35.84H126.68L128.94 44.92H128.98L131.94 35.84H134.84L137.78 45.16H137.82L140.2 35.84H143.36L139.22 50H136.44L133.32 40.2H133.28L130.16 50H127.48L123.28 35.84ZM149.738 48.78H149.698C149.365 49.3 148.918 49.6733 148.358 49.9C147.811 50.1267 147.231 50.24 146.618 50.24C146.165 50.24 145.725 50.1733 145.298 50.04C144.885 49.92 144.518 49.7333 144.198 49.48C143.878 49.2267 143.625 48.9133 143.438 48.54C143.251 48.1667 143.158 47.7333 143.158 47.24C143.158 46.68 143.258 46.2067 143.458 45.82C143.671 45.4333 143.951 45.1133 144.298 44.86C144.658 44.6067 145.065 44.4133 145.518 44.28C145.971 44.1333 146.438 44.0267 146.918 43.96C147.411 43.8933 147.898 43.8533 148.378 43.84C148.871 43.8267 149.325 43.82 149.738 43.82C149.738 43.2867 149.545 42.8667 149.158 42.56C148.785 42.24 148.338 42.08 147.818 42.08C147.325 42.08 146.871 42.1867 146.458 42.4C146.058 42.6 145.698 42.88 145.378 43.24L143.778 41.6C144.338 41.08 144.991 40.6933 145.738 40.44C146.485 40.1733 147.258 40.04 148.058 40.04C148.938 40.04 149.658 40.1533 150.218 40.38C150.791 40.5933 151.245 40.9133 151.578 41.34C151.925 41.7667 152.165 42.2933 152.298 42.92C152.431 43.5333 152.498 44.2467 152.498 45.06V50H149.738V48.78ZM148.998 45.74C148.771 45.74 148.485 45.7533 148.138 45.78C147.805 45.7933 147.478 45.8467 147.158 45.94C146.851 46.0333 146.585 46.1733 146.358 46.36C146.145 46.5467 146.038 46.8067 146.038 47.14C146.038 47.5 146.191 47.7667 146.498 47.94C146.805 48.1133 147.125 48.2 147.458 48.2C147.751 48.2 148.031 48.16 148.298 48.08C148.578 48 148.825 47.8867 149.038 47.74C149.251 47.5933 149.418 47.4067 149.538 47.18C149.671 46.9533 149.738 46.6867 149.738 46.38V45.74H148.998ZM154.42 34.88H157.42V50H154.42V34.88ZM159.616 34.88H162.616V50H159.616V34.88ZM173.971 48.32C173.491 48.9333 172.884 49.4067 172.151 49.74C171.418 50.0733 170.658 50.24 169.871 50.24C169.124 50.24 168.418 50.12 167.751 49.88C167.098 49.64 166.524 49.3 166.031 48.86C165.551 48.4067 165.171 47.8667 164.891 47.24C164.611 46.6133 164.471 45.9133 164.471 45.14C164.471 44.3667 164.611 43.6667 164.891 43.04C165.171 42.4133 165.551 41.88 166.031 41.44C166.524 40.9867 167.098 40.64 167.751 40.4C168.418 40.16 169.124 40.04 169.871 40.04C170.564 40.04 171.191 40.16 171.751 40.4C172.324 40.64 172.804 40.9867 173.191 41.44C173.591 41.88 173.898 42.4133 174.111 43.04C174.324 43.6667 174.431 44.3667 174.431 45.14V46.08H167.471C167.591 46.6533 167.851 47.1133 168.251 47.46C168.651 47.7933 169.144 47.96 169.731 47.96C170.224 47.96 170.638 47.8533 170.971 47.64C171.318 47.4133 171.618 47.1267 171.871 46.78L173.971 48.32ZM171.431 44.04C171.444 43.5333 171.278 43.1 170.931 42.74C170.584 42.38 170.138 42.2 169.591 42.2C169.258 42.2 168.964 42.2533 168.711 42.36C168.458 42.4667 168.238 42.6067 168.051 42.78C167.878 42.94 167.738 43.1333 167.631 43.36C167.538 43.5733 167.484 43.8 167.471 44.04H171.431ZM182.875 42.68H180.235V45.92C180.235 46.1867 180.249 46.4333 180.275 46.66C180.302 46.8733 180.362 47.06 180.455 47.22C180.549 47.38 180.689 47.5067 180.875 47.6C181.075 47.68 181.335 47.72 181.655 47.72C181.815 47.72 182.022 47.7067 182.275 47.68C182.542 47.64 182.742 47.56 182.875 47.44V49.94C182.542 50.06 182.195 50.14 181.835 50.18C181.475 50.22 181.122 50.24 180.775 50.24C180.269 50.24 179.802 50.1867 179.375 50.08C178.949 49.9733 178.575 49.8067 178.255 49.58C177.935 49.34 177.682 49.0333 177.495 48.66C177.322 48.2867 177.235 47.8333 177.235 47.3V42.68H175.315V40.28H177.235V37.4H180.235V40.28H182.875V42.68Z"
        fill="white" />
    <path
        d="M44.9772 23.5515C44.6689 23.77 44.1626 24.1109 43.4604 24.5702C42.7805 25.0153 41.8129 25.6706 40.5471 26.5423L39.0609 27.5406L38.33 28.0428C37.9769 28.294 37.5522 28.4266 37.1011 28.4266C36.8887 28.4266 36.7193 28.4083 36.6131 28.3797C36.2681 28.3042 36.0068 28.198 35.8006 28.049L28.0531 22.986C28.0531 25.6645 28.051 27.7427 28.047 29.3392L29.9027 30.8581L37.0316 36.6886L44.0912 30.7417L45.804 29.2984C45.802 26.9302 45.7979 25.0377 45.7877 23.0064C45.5488 23.1677 45.2814 23.3494 44.9772 23.5515Z"
        fill="#FFB71B" />
    <path
        d="M53.8414 16.002H50.4974H44.8323V16H29.1739V16.002H26.4709H23.5066H22.9432H20.1626C17.8639 16.002 16 17.8659 16 20.1647V26.6955C16 28.9942 17.8639 30.8581 20.1626 30.8581H22.9432H23.5066H23.9905L24.0129 19.5522C24.0129 18.9377 24.1987 18.4519 24.5478 18.1273C24.8112 17.8721 25.2848 17.5658 26.0442 17.5658C26.475 17.5658 26.871 17.6659 27.2222 17.8619L27.2569 17.8823L27.2896 17.9047L37.0623 24.313L46.5696 17.8904C46.9125 17.6332 47.3372 17.5026 47.8312 17.5026C48.6274 17.5026 49.099 17.8353 49.3848 18.1538C49.6686 18.4947 49.8115 18.8581 49.8115 19.2317V19.3787L49.836 30.8602H50.4934H53.8374C56.1361 30.8602 58 28.9963 58 26.6975V20.1647C58.0041 17.8659 56.1402 16.002 53.8414 16.002Z"
        fill="#3368FF" />
    <path
        d="M36.9479 28.4226C36.8112 28.4164 36.6907 28.4022 36.6131 28.3817C36.2681 28.3062 36.0068 28.2 35.8006 28.051L28.0531 22.986C28.0531 25.6645 28.051 27.7427 28.047 29.3392L29.9027 30.8581L36.95 36.6213V28.4226H36.9479Z"
        fill="#FF8303" />
    <path
        d="M43.6033 35.97C43.3542 36.1885 42.9479 36.5294 42.3845 36.9908C41.8394 37.4359 41.0657 38.0912 40.0531 38.9609L39.1099 39.753V46.9922C39.1099 48.0027 38.3974 48.8459 37.4501 49.05C37.4175 49.0602 37.3869 49.0684 37.3603 49.0745C37.2154 49.1133 37.0561 49.1337 36.8744 49.1337C36.4784 49.1337 36.0987 49.0112 35.772 48.7785C35.5046 48.5866 35.3086 48.3396 35.1861 48.0476C35.0065 47.7373 34.9003 47.378 34.9003 46.9922V39.7366L29.1759 35.0677V42.3641V47.821C29.1759 50.5893 31.4195 52.835 34.1899 52.835H39.8224C42.5907 52.835 44.8363 50.5893 44.8363 47.821V42.3641V34.9391C44.5117 35.2086 44.1096 35.5454 43.6033 35.97Z"
        fill="#3368FF" />
</svg>
