<svg width="32" height="32" viewBox="0 0 32 32" fill="none" xmlns="http://www.w3.org/2000/svg">
<path d="M21.3333 18.668H10.6667C10.313 18.668 9.97391 18.8084 9.72386 19.0585C9.47381 19.3085 9.33333 19.6477 9.33333 20.0013C9.33333 20.3549 9.47381 20.6941 9.72386 20.9441C9.97391 21.1942 10.313 21.3346 10.6667 21.3346H21.3333C21.687 21.3346 22.0261 21.1942 22.2761 20.9441C22.5262 20.6941 22.6667 20.3549 22.6667 20.0013C22.6667 19.6477 22.5262 19.3085 22.2761 19.0585C22.0261 18.8084 21.687 18.668 21.3333 18.668ZM21.3333 13.3346H13.3333C12.9797 13.3346 12.6406 13.4751 12.3905 13.7252C12.1405 13.9752 12 14.3143 12 14.668C12 15.0216 12.1405 15.3607 12.3905 15.6108C12.6406 15.8608 12.9797 16.0013 13.3333 16.0013H21.3333C21.687 16.0013 22.0261 15.8608 22.2761 15.6108C22.5262 15.3607 22.6667 15.0216 22.6667 14.668C22.6667 14.3143 22.5262 13.9752 22.2761 13.7252C22.0261 13.4751 21.687 13.3346 21.3333 13.3346ZM26.6667 5.33464H22.6667V4.0013C22.6667 3.64768 22.5262 3.30854 22.2761 3.05849C22.0261 2.80844 21.687 2.66797 21.3333 2.66797C20.9797 2.66797 20.6406 2.80844 20.3905 3.05849C20.1405 3.30854 20 3.64768 20 4.0013V5.33464H17.3333V4.0013C17.3333 3.64768 17.1929 3.30854 16.9428 3.05849C16.6928 2.80844 16.3536 2.66797 16 2.66797C15.6464 2.66797 15.3072 2.80844 15.0572 3.05849C14.8071 3.30854 14.6667 3.64768 14.6667 4.0013V5.33464H12V4.0013C12 3.64768 11.8595 3.30854 11.6095 3.05849C11.3594 2.80844 11.0203 2.66797 10.6667 2.66797C10.313 2.66797 9.97391 2.80844 9.72386 3.05849C9.47381 3.30854 9.33333 3.64768 9.33333 4.0013V5.33464H5.33333C4.97971 5.33464 4.64057 5.47511 4.39052 5.72516C4.14048 5.97521 4 6.31435 4 6.66797V25.3346C4 26.3955 4.42143 27.4129 5.17157 28.1631C5.92172 28.9132 6.93913 29.3346 8 29.3346H24C25.0609 29.3346 26.0783 28.9132 26.8284 28.1631C27.5786 27.4129 28 26.3955 28 25.3346V6.66797C28 6.31435 27.8595 5.97521 27.6095 5.72516C27.3594 5.47511 27.0203 5.33464 26.6667 5.33464ZM25.3333 25.3346C25.3333 25.6883 25.1929 26.0274 24.9428 26.2774C24.6928 26.5275 24.3536 26.668 24 26.668H8C7.64638 26.668 7.30724 26.5275 7.05719 26.2774C6.80714 26.0274 6.66667 25.6883 6.66667 25.3346V8.0013H9.33333V9.33463C9.33333 9.68826 9.47381 10.0274 9.72386 10.2774C9.97391 10.5275 10.313 10.668 10.6667 10.668C11.0203 10.668 11.3594 10.5275 11.6095 10.2774C11.8595 10.0274 12 9.68826 12 9.33463V8.0013H14.6667V9.33463C14.6667 9.68826 14.8071 10.0274 15.0572 10.2774C15.3072 10.5275 15.6464 10.668 16 10.668C16.3536 10.668 16.6928 10.5275 16.9428 10.2774C17.1929 10.0274 17.3333 9.68826 17.3333 9.33463V8.0013H20V9.33463C20 9.68826 20.1405 10.0274 20.3905 10.2774C20.6406 10.5275 20.9797 10.668 21.3333 10.668C21.687 10.668 22.0261 10.5275 22.2761 10.2774C22.5262 10.0274 22.6667 9.68826 22.6667 9.33463V8.0013H25.3333V25.3346Z" fill="#4F70C2"/>
</svg>
