<svg width="113" height="117" viewBox="0 0 113 117" fill="none" xmlns="http://www.w3.org/2000/svg">
<g clip-path="url(#clip0_3078_32486)">
<path d="M72.2676 60.0719C71.5168 60.0719 70.9537 60.0719 70.2029 59.6965C69.2643 59.5088 68.7012 58.3826 68.8889 57.444C69.0766 56.5055 70.2029 55.9424 71.1414 56.1301C72.4554 56.5055 73.957 56.1301 74.8956 55.1915C76.3972 53.6899 76.3972 51.2497 74.8956 49.748C73.3939 48.2463 70.9537 48.2463 69.452 49.748C66.4487 52.7513 61.5683 52.7513 58.565 49.748C55.5617 46.7447 55.5617 41.8643 58.565 38.861C60.4421 36.9839 63.2577 36.2331 65.8856 36.7962C66.8241 36.9839 67.3872 38.1101 67.1995 39.0487C67.0118 39.9872 65.8856 40.5503 64.947 40.3626C63.6331 39.9872 62.1314 40.3626 61.1929 41.3012C59.6912 42.8028 59.6912 45.243 61.1929 46.7447C62.6946 48.2463 65.1348 48.2463 66.6364 46.7447C69.6397 43.7414 74.5201 43.7414 77.5235 46.7447C80.5268 49.748 80.5268 54.6284 77.5235 57.6317C76.2095 59.3211 74.3324 60.0719 72.2676 60.0719Z" fill="#FFAE42"/>
<path d="M78.2741 60.253C77.711 60.253 77.3356 60.0653 76.9601 59.6899L70.9535 53.6832C70.2027 52.9324 70.2027 51.8061 70.9535 51.0553C71.7043 50.3045 72.8306 50.3045 73.5814 51.0553L79.5881 57.062C80.3389 57.8128 80.3389 58.939 79.5881 59.6899C79.2126 60.0653 78.6495 60.253 78.2741 60.253Z" fill="#FFAE42"/>
<path d="M63.6331 45.6156C63.07 45.6156 62.6946 45.4279 62.3191 45.0525L56.8756 39.609C56.1248 38.8582 56.1248 37.7319 56.8756 36.9811C57.6265 36.2303 58.7527 36.2303 59.5035 36.9811L64.9471 42.4246C65.6979 43.1754 65.6979 44.3017 64.9471 45.0525C64.5716 45.4279 64.0085 45.6156 63.6331 45.6156Z" fill="#FFAE42"/>
<path d="M59.6911 80.1589C59.5034 80.1589 59.3156 80.1589 58.9402 79.9712C56.3123 78.845 53.309 78.845 50.6811 79.7835C49.9303 79.9712 49.1794 79.7835 48.804 79.4081L37.3539 67.9579C36.7907 67.3948 36.603 66.644 36.9784 66.0809C37.917 63.4529 37.7293 60.4496 36.7907 57.8217C36.603 57.0709 36.603 56.3201 37.1661 55.7569L49.9303 42.9928C50.6811 42.242 51.8073 42.242 52.5582 42.9928C53.309 43.7436 53.309 44.8699 52.5582 45.6207L40.5449 57.634C41.4834 60.4496 41.4834 63.4529 40.7326 66.2686L50.6811 76.2171C53.4967 75.4662 56.5 75.6539 59.3156 76.4048L71.3289 64.3915C72.0798 63.6406 73.206 63.6406 73.9568 64.3915C74.7077 65.1423 74.7077 66.2686 73.9568 67.0194L61.1927 79.7835C60.6296 79.9712 60.2542 80.1589 59.6911 80.1589Z" fill="#FFAE42"/>
<path d="M85.2194 54.4402C84.6562 54.4402 84.2808 54.2525 83.9054 53.8771C83.1546 53.1262 83.1546 52 83.9054 51.2491L95.9187 39.2359C94.9801 36.4202 94.9801 33.4169 95.731 30.6013L85.7825 20.6528C82.9669 21.4036 79.9635 21.2159 77.1479 20.4651L65.1346 32.4784C64.3838 33.2292 63.2576 33.2292 62.5067 32.4784C61.7559 31.7275 61.7559 30.6013 62.5067 29.8505L75.2708 17.0864C75.834 16.5232 76.5848 16.3355 77.3356 16.7109C79.9635 17.8372 82.9669 17.8372 85.5948 16.8986C86.3456 16.7109 87.0964 16.8986 87.4718 17.2741L98.922 28.7242C99.4851 29.2874 99.6728 30.0382 99.2974 30.6013C98.3589 33.2292 98.5466 36.2325 99.4851 38.8604C99.6728 39.6113 99.6728 40.3621 99.1097 40.9252L86.3456 53.6893C86.1579 54.2525 85.7825 54.4402 85.2194 54.4402Z" fill="#FFAE42"/>
<path d="M60.6293 71.334C60.2539 71.334 60.0662 71.3341 59.6908 71.1463C56.8752 69.457 54.2473 67.3922 51.8071 64.952C49.3669 62.5118 47.3021 59.8839 45.6127 57.0683C45.0496 56.1297 45.425 55.0035 46.3636 54.4404C47.3021 53.8772 48.4283 54.2527 48.9915 55.1912C50.4931 57.8191 52.3702 60.2593 54.6227 62.3241C56.8752 64.5766 59.3154 66.4537 61.7556 67.9553C62.6941 68.5184 62.8818 69.6447 62.5064 70.5832C61.7556 70.9586 61.1925 71.334 60.6293 71.334Z" fill="#FFAE42"/>
<path d="M89.3487 42.6142C88.7856 42.6142 88.0348 42.2388 87.6594 41.6757C86.1577 39.0478 84.2806 36.6076 82.0281 34.5428C79.7756 32.2903 77.3354 30.4132 74.8952 28.9116C73.9567 28.3485 73.769 27.2222 74.1444 26.2837C74.7075 25.3451 75.8338 25.1574 76.7723 25.5328C79.5879 27.2222 82.2158 29.287 84.656 31.7272C87.0962 34.1674 89.161 36.7953 90.8504 39.6109C91.4135 40.5495 91.0381 41.6757 90.0996 42.2388C89.9119 42.6142 89.5364 42.6142 89.3487 42.6142Z" fill="#FFAE42"/>
<path d="M54.4351 93.1029C53.872 93.1029 53.4966 92.9152 53.1212 92.5398L24.0265 63.4451C23.2757 62.6943 23.2757 61.5681 24.0265 60.8172L80.5265 4.12953C81.2773 3.3787 82.4036 3.3787 83.1544 4.12953L112.437 33.4119C113.188 34.1628 113.188 35.289 112.437 36.0398L55.9368 92.5398C55.5614 92.9152 54.9983 93.1029 54.4351 93.1029ZM27.9684 61.9435L54.4351 88.598L108.307 34.7259L81.8405 8.07139L27.9684 61.9435Z" fill="#FFAE42"/>
<path d="M4.12952 72.2713C3.56639 72.2713 3.19098 72.0836 2.81556 71.7082C2.06473 70.9574 2.06473 69.8311 2.81556 69.0803L71.3288 0.567029C72.0797 -0.183801 73.2059 -0.183801 73.9568 0.567029C74.7076 1.31786 74.7076 2.44411 73.9568 3.19494L5.44347 71.7082C5.06806 72.0836 4.50493 72.2713 4.12952 72.2713Z" fill="#FFAE42"/>
<path d="M6.19446 112.253C5.63134 112.253 5.25592 112.065 4.88051 111.69C4.12968 110.939 4.12968 109.813 4.88051 109.062L32.0981 81.8444C32.8489 81.0935 33.9752 81.0935 34.726 81.8444C35.4769 82.5952 35.4769 83.7215 34.726 84.4723L7.50841 111.69C7.133 112.065 6.75758 112.253 6.19446 112.253Z" fill="#FFAE42"/>
<path d="M1.87708 98.3656C1.31395 98.3656 0.938538 98.1779 0.563123 97.8025C-0.187708 97.0517 -0.187708 95.9254 0.563123 95.1746L23.6512 72.0866C24.402 71.3357 25.5282 71.3357 26.2791 72.0866C27.0299 72.8374 27.0299 73.9636 26.2791 74.7145L3.19103 97.8025C2.81561 98.1779 2.4402 98.3656 1.87708 98.3656Z" fill="#FFAE42"/>
<path d="M20.0846 116.573C19.5215 116.573 19.1461 116.385 18.7706 116.01C18.0198 115.259 18.0198 114.132 18.7706 113.382L41.8587 90.2936C42.6095 89.5428 43.7358 89.5428 44.4866 90.2936C45.2374 91.0444 45.2374 92.1707 44.4866 92.9215L21.3985 116.01C21.0231 116.385 20.6477 116.573 20.0846 116.573Z" fill="#FFAE42"/>
</g>
<defs>
<clipPath id="clip0_3078_32486">
<rect width="113" height="116.566" fill="white"/>
</clipPath>
</defs>
</svg>
