<svg width="120" height="120" viewBox="0 0 120 120" fill="none" xmlns="http://www.w3.org/2000/svg">
<path d="M118.024 89.0676L70.5889 18.6801C69.4204 16.9455 67.8436 15.5245 65.9972 14.5421C64.1508 13.5597 62.0914 13.0459 59.9999 13.0459C57.9084 13.0459 55.8489 13.5597 54.0025 14.5421C52.1561 15.5245 50.5794 16.9455 49.4108 18.6801L1.97556 89.0676C0.812077 90.7937 0.140124 92.8038 0.0316919 94.8826C-0.0767397 96.9614 0.382437 99.0306 1.36003 100.868C2.33762 102.706 3.79679 104.243 5.58121 105.315C7.36563 106.387 9.40806 106.953 11.4897 106.953H108.51C110.592 106.953 112.634 106.387 114.419 105.315C116.203 104.243 117.662 102.706 118.64 100.868C119.617 99.0306 120.076 96.9614 119.968 94.8826C119.86 92.8038 119.188 90.7937 118.024 89.0676Z" fill="#FFE5E5"/>
<path d="M113.359 92.2124L65.9251 21.8249C65.2715 20.8542 64.3893 20.059 63.3563 19.5092C62.3232 18.9594 61.1709 18.6719 60.0007 18.6719C58.8304 18.6719 57.6781 18.9594 56.6451 19.5092C55.612 20.059 54.7299 20.8542 54.0762 21.8249L6.6395 92.2124C6.04676 93.0923 5.70454 94.1169 5.64948 95.1765C5.59443 96.236 5.82862 97.2906 6.32697 98.2272C6.82532 99.1638 7.56906 99.9473 8.47854 100.494C9.38802 101.04 10.429 101.329 11.4899 101.329H108.51C109.571 101.329 110.612 101.04 111.522 100.494C112.431 99.9474 113.175 99.1639 113.673 98.2271C114.172 97.2904 114.406 96.2357 114.35 95.1762C114.295 94.1166 113.952 93.0921 113.359 92.2124Z" fill="#FF8484"/>
<path d="M63.75 80.625H56.25C55.2145 80.625 54.375 81.4645 54.375 82.5V90C54.375 91.0355 55.2145 91.875 56.25 91.875H63.75C64.7855 91.875 65.625 91.0355 65.625 90V82.5C65.625 81.4645 64.7855 80.625 63.75 80.625Z" fill="#C92F2F"/>
<path d="M56.2501 76.875H63.7501C64.207 76.8747 64.6481 76.7077 64.9907 76.4053C65.3332 76.1029 65.5536 75.6859 65.6105 75.2325L69.3605 45.2325C69.3937 44.9687 69.3705 44.7007 69.2922 44.4466C69.2139 44.1925 69.0823 43.9579 68.9063 43.7585C68.7303 43.5591 68.5139 43.3995 68.2715 43.2903C68.029 43.1811 67.766 43.1247 67.5001 43.125H52.5001C52.2342 43.1247 51.9712 43.1811 51.7287 43.2903C51.4863 43.3995 51.2698 43.5591 51.0939 43.7585C50.9179 43.9579 50.7863 44.1925 50.708 44.4466C50.6297 44.7007 50.6064 44.9687 50.6397 45.2325L54.3897 75.2325C54.4466 75.6859 54.667 76.1029 55.0095 76.4053C55.3521 76.7077 55.7932 76.8747 56.2501 76.875Z" fill="#C92F2F"/>
</svg>
