<svg width="32" height="32" viewBox="0 0 32 32" fill="none" xmlns="http://www.w3.org/2000/svg">
<path d="M25.4545 3H6.54493C5.6046 3 4.70277 3.37355 4.03786 4.03847C3.37294 4.70338 2.99939 5.60521 2.99939 6.54554V25.4551C2.99939 26.3954 3.37294 27.2973 4.03786 27.9622C4.70277 28.6271 5.6046 29.0006 6.54493 29.0006H25.4545C26.3948 29.0006 27.2967 28.6271 27.9616 27.9622C28.6265 27.2973 29 26.3954 29 25.4551V6.54554C29 5.60521 28.6265 4.70338 27.9616 4.03847C27.2967 3.37355 26.3948 3 25.4545 3ZM11.2723 26.637H6.54493C6.23149 26.637 5.93088 26.5124 5.70924 26.2908C5.4876 26.0692 5.36309 25.7686 5.36309 25.4551V24.0605C5.74207 24.1981 6.14175 24.2701 6.54493 24.2733H11.2723V26.637ZM11.2723 21.9096H6.54493C6.23149 21.9096 5.93088 21.785 5.70924 21.5634C5.4876 21.3418 5.36309 21.0412 5.36309 20.7277V19.3331C5.74207 19.4707 6.14175 19.5427 6.54493 19.5459H11.2723V21.9096ZM11.2723 17.1822H6.54493C6.23149 17.1822 5.93088 17.0577 5.70924 16.836C5.4876 16.6144 5.36309 16.3138 5.36309 16.0003V6.54554C5.36309 6.2321 5.4876 5.93149 5.70924 5.70985C5.93088 5.48821 6.23149 5.3637 6.54493 5.3637H11.2723V17.1822ZM18.3634 26.637H13.636V19.5459H18.3634V26.637ZM18.3634 17.1822H13.636V5.3637H18.3634V17.1822ZM26.6363 25.4551C26.6363 25.7686 26.5118 26.0692 26.2902 26.2908C26.0686 26.5124 25.7679 26.637 25.4545 26.637H20.7271V24.2733H25.4545C25.8577 24.2701 26.2574 24.1981 26.6363 24.0605V25.4551ZM26.6363 20.7277C26.6363 21.0412 26.5118 21.3418 26.2902 21.5634C26.0686 21.785 25.7679 21.9096 25.4545 21.9096H20.7271V19.5459H25.4545C25.8577 19.5427 26.2574 19.4707 26.6363 19.3331V20.7277ZM26.6363 16.0003C26.6363 16.3138 26.5118 16.6144 26.2902 16.836C26.0686 17.0577 25.7679 17.1822 25.4545 17.1822H20.7271V5.3637H25.4545C25.7679 5.3637 26.0686 5.48821 26.2902 5.70985C26.5118 5.93149 26.6363 6.2321 26.6363 6.54554V16.0003ZM23.0908 10.0911C22.8571 10.0911 22.6286 10.1604 22.4342 10.2903C22.2398 10.4201 22.0884 10.6047 21.9989 10.8207C21.9095 11.0366 21.8861 11.2742 21.9317 11.5035C21.9773 11.7328 22.0898 11.9433 22.2551 12.1086C22.4204 12.2739 22.631 12.3865 22.8602 12.4321C23.0895 12.4777 23.3271 12.4543 23.5431 12.3648C23.759 12.2754 23.9436 12.1239 24.0735 11.9295C24.2033 11.7352 24.2726 11.5067 24.2726 11.2729C24.2726 10.9595 24.1481 10.6589 23.9265 10.4372C23.7049 10.2156 23.4042 10.0911 23.0908 10.0911ZM8.90863 12.4548C9.14238 12.4548 9.37087 12.3855 9.56523 12.2556C9.75958 12.1257 9.91106 11.9412 10.0005 11.7252C10.09 11.5093 10.1134 11.2716 10.0678 11.0424C10.0222 10.8131 9.9096 10.6025 9.74432 10.4372C9.57904 10.272 9.36845 10.1594 9.13919 10.1138C8.90994 10.0682 8.67231 10.0916 8.45635 10.181C8.2404 10.2705 8.05582 10.422 7.92596 10.6163C7.79609 10.8107 7.72678 11.0392 7.72678 11.2729C7.72678 11.5864 7.8513 11.887 8.07294 12.1086C8.29458 12.3303 8.59518 12.4548 8.90863 12.4548Z" fill="#4F70C2"/>
</svg>
