<svg width="120" height="120" viewBox="0 0 120 120" fill="none" xmlns="http://www.w3.org/2000/svg">
<path d="M106.985 20.6288C76.3971 18.8288 61.6076 0.882641 61.4625 0.701328C61.2865 0.483196 61.0639 0.307184 60.8111 0.186175C60.5583 0.0651654 60.2816 0.00222252 60.0013 0.00195315H59.9981C59.7174 0.00190349 59.4403 0.0648881 59.1871 0.186259C58.934 0.30763 58.7114 0.48429 58.5356 0.703203C58.3911 0.884516 43.7014 18.8234 13.0147 20.6288C12.5375 20.6569 12.089 20.8663 11.7609 21.2141C11.4329 21.562 11.2501 22.022 11.25 22.5001V72.0282C11.2737 79.4433 13.3802 86.7026 17.3294 92.9787C21.2785 99.2548 26.9114 104.295 33.5861 107.525L59.1889 119.815C59.442 119.937 59.7192 120 60 120C60.2808 120 60.558 119.937 60.8111 119.815L86.4129 107.525C93.0878 104.295 98.721 99.255 102.67 92.9789C106.62 86.7029 108.726 79.4435 108.75 72.0282V22.5001C108.75 22.0219 108.567 21.5619 108.239 21.214C107.911 20.8662 107.462 20.6568 106.985 20.6288Z" fill="#D8F5CE"/>
<path d="M101.472 25.7854C86.6065 24.2702 72.5659 18.224 61.2506 8.46532C60.9068 8.1575 60.4615 7.9873 60 7.9873C59.5385 7.9873 59.0932 8.1575 58.7494 8.46532C47.4347 18.2244 33.3943 24.2707 18.5293 25.7854C18.0734 25.8395 17.6532 26.0589 17.3483 26.4021C17.0434 26.7453 16.875 27.1884 16.875 27.6475V72.0304C16.8952 78.3862 18.7007 84.6084 22.0858 89.9877C25.4708 95.3671 30.2992 99.6871 36.0204 102.455L59.1889 113.575C59.4419 113.697 59.7192 113.76 60 113.76C60.2808 113.76 60.5581 113.697 60.8111 113.575L83.9796 102.455C89.7008 99.6871 94.5292 95.3671 97.9142 89.9877C101.299 84.6084 103.105 78.3862 103.125 72.0304V27.6475C103.125 27.1886 102.957 26.7456 102.652 26.4024C102.347 26.0592 101.927 25.8397 101.472 25.7854Z" fill="#89DA6D"/>
<path d="M60 91.875C77.6041 91.875 91.875 77.6041 91.875 60C91.875 42.3959 77.6041 28.125 60 28.125C42.3959 28.125 28.125 42.3959 28.125 60C28.125 77.6041 42.3959 91.875 60 91.875Z" fill="#D8F5CE"/>
<path d="M60 86.25C74.4975 86.25 86.25 74.4975 86.25 60C86.25 45.5025 74.4975 33.75 60 33.75C45.5025 33.75 33.75 45.5025 33.75 60C33.75 74.4975 45.5025 86.25 60 86.25Z" fill="#65D83C"/>
<path d="M58.1249 67.5004C57.8787 67.5007 57.6348 67.4523 57.4073 67.358C57.1798 67.2637 56.9731 67.1254 56.7993 66.951L51.1743 61.326C50.8327 60.9724 50.6437 60.4988 50.648 60.0071C50.6523 59.5155 50.8495 59.0453 51.1971 58.6976C51.5448 58.35 52.015 58.1528 52.5067 58.1485C52.9983 58.1442 53.4719 58.3332 53.8255 58.6748L58.1249 62.974L68.0493 53.0498C68.4029 52.7082 68.8765 52.5192 69.3682 52.5235C69.8598 52.5278 70.3301 52.725 70.6777 53.0726C71.0253 53.4203 71.2225 53.8905 71.2268 54.3821C71.2311 54.8738 71.0421 55.3474 70.7005 55.701L59.4505 66.951C59.2767 67.1254 59.07 67.2637 58.8426 67.358C58.6151 67.4523 58.3712 67.5007 58.1249 67.5004Z" fill="#336B1F"/>
</svg>
