<svg width="96" height="117" viewBox="0 0 96 117" fill="none" xmlns="http://www.w3.org/2000/svg">
<g clip-path="url(#clip0_3107_32114)">
<path d="M47.7531 116.698C47.4978 116.698 47.2424 116.698 46.987 116.442L21.4506 104.185C8.42702 98.056 0 84.5217 0 70.2213V22.7235C0 21.7021 0.766093 20.936 1.78755 20.6806C32.4313 17.6162 46.221 0.762187 46.221 0.762187C46.987 -0.259271 48.5192 -0.259271 49.2853 0.762187C49.5407 1.01755 63.3304 17.6162 93.7187 20.6806C94.7402 20.6806 95.5063 21.7021 95.5063 22.7235V70.2213C95.5063 84.7771 87.0792 98.056 74.0557 104.44L48.5192 116.698C48.5192 116.442 48.0085 116.698 47.7531 116.698ZM3.83047 24.2557V69.9659C3.83047 82.9895 11.4914 94.9916 23.2382 100.61L47.7531 112.356L72.2681 100.61C84.0149 94.9916 91.6758 82.9895 91.6758 69.9659V24.2557C66.1394 21.1913 52.0943 9.18921 47.7531 4.84802C43.4119 9.18921 29.6223 21.1913 3.83047 24.2557Z" fill="#71FF70"/>
<path d="M47.0299 87.6042C32.5521 87.6042 20.4873 75.8409 20.4873 61.0615C20.4873 59.2518 20.7889 57.1405 21.0905 55.3307C21.3922 54.1242 22.5987 53.2194 23.8051 53.521C25.0116 53.8226 25.9165 55.0291 25.6149 56.2356C25.3132 57.7437 25.0116 59.2518 25.0116 60.7599C25.0116 72.8247 34.6635 82.4766 46.7283 82.4766C58.7931 82.4766 69.0483 73.428 69.0483 61.3631C69.0483 58.3469 68.445 55.3307 67.2385 52.6161C66.6353 51.4097 67.2385 50.2032 68.445 49.5999C69.6515 48.9967 70.858 49.5999 71.4612 50.8064C72.9693 54.1242 73.5726 57.7437 73.5726 61.3631C73.5726 75.8409 61.8094 87.6042 47.0299 87.6042Z" fill="#71FF70"/>
<path d="M31.3453 45.3692C30.7421 45.3692 30.1389 45.0676 29.5356 44.4644C28.6307 43.5595 28.9324 42.0514 29.8372 41.1465C34.6632 37.2255 40.6956 34.8125 47.0296 34.8125C51.5539 34.8125 55.7766 36.019 59.6977 38.1303C60.9042 38.7336 61.2058 40.2417 60.6026 41.1465C59.9993 42.353 58.4912 42.6546 57.5863 42.0514C54.2685 40.2417 50.6491 39.3368 47.0296 39.3368C41.9021 39.3368 36.7745 41.1465 32.8534 44.4644C32.5518 45.0676 31.9486 45.3692 31.3453 45.3692Z" fill="#71FF70"/>
<path d="M47.0303 69.797C46.1255 69.797 45.5222 69.1938 44.919 68.5905C40.3947 59.8435 28.9331 52.6046 22.5991 48.9852C21.3926 48.3819 21.091 46.8738 21.6942 45.969C22.2974 44.7625 23.8055 44.4609 24.7104 45.0641C30.7428 48.3819 40.9979 55.0176 46.7287 63.1614C51.253 55.9225 63.3179 39.0317 79.907 34.2058C81.1135 33.9041 82.32 34.5074 82.9232 35.7139C83.2248 36.9204 82.6216 38.1268 81.4151 38.7301C62.1114 44.1593 49.1417 68.5905 49.1417 68.8922C48.8401 69.1938 47.9352 69.797 47.0303 69.797Z" fill="#71FF70"/>
</g>
<defs>
<clipPath id="clip0_3107_32114">
<rect width="95.7616" height="116.702" fill="white"/>
</clipPath>
</defs>
</svg>
