<svg width="32" height="32" viewBox="0 0 32 32" fill="none" xmlns="http://www.w3.org/2000/svg">
<path d="M25.4544 3H6.54481C5.60447 3 4.70265 3.37355 4.03773 4.03847C3.37281 4.70338 2.99927 5.60521 2.99927 6.54554V25.4551C2.99927 26.3954 3.37281 27.2973 4.03773 27.9622C4.70265 28.6271 5.60447 29.0006 6.54481 29.0006H25.4544C26.3947 29.0006 27.2965 28.6271 27.9615 27.9622C28.6264 27.2973 28.9999 26.3954 28.9999 25.4551V6.54554C28.9999 5.60521 28.6264 4.70338 27.9615 4.03847C27.2965 3.37355 26.3947 3 25.4544 3ZM11.2722 26.637H6.54481C6.23137 26.637 5.93076 26.5124 5.70912 26.2908C5.48748 26.0692 5.36296 25.7686 5.36296 25.4551V24.0605C5.74195 24.1981 6.14163 24.2701 6.54481 24.2733H11.2722V26.637ZM11.2722 21.9096H6.54481C6.23137 21.9096 5.93076 21.785 5.70912 21.5634C5.48748 21.3418 5.36296 21.0412 5.36296 20.7277V19.3331C5.74195 19.4707 6.14163 19.5427 6.54481 19.5459H11.2722V21.9096ZM11.2722 17.1822H6.54481C6.23137 17.1822 5.93076 17.0577 5.70912 16.836C5.48748 16.6144 5.36296 16.3138 5.36296 16.0003V6.54554C5.36296 6.2321 5.48748 5.93149 5.70912 5.70985C5.93076 5.48821 6.23137 5.3637 6.54481 5.3637H11.2722V17.1822ZM18.3633 26.637H13.6359V19.5459H18.3633V26.637ZM18.3633 17.1822H13.6359V5.3637H18.3633V17.1822ZM26.6362 25.4551C26.6362 25.7686 26.5117 26.0692 26.2901 26.2908C26.0684 26.5124 25.7678 26.637 25.4544 26.637H20.727V24.2733H25.4544C25.8576 24.2701 26.2572 24.1981 26.6362 24.0605V25.4551ZM26.6362 20.7277C26.6362 21.0412 26.5117 21.3418 26.2901 21.5634C26.0684 21.785 25.7678 21.9096 25.4544 21.9096H20.727V19.5459H25.4544C25.8576 19.5427 26.2572 19.4707 26.6362 19.3331V20.7277ZM26.6362 16.0003C26.6362 16.3138 26.5117 16.6144 26.2901 16.836C26.0684 17.0577 25.7678 17.1822 25.4544 17.1822H20.727V5.3637H25.4544C25.7678 5.3637 26.0684 5.48821 26.2901 5.70985C26.5117 5.93149 26.6362 6.2321 26.6362 6.54554V16.0003ZM23.0907 10.0911C22.8569 10.0911 22.6284 10.1604 22.4341 10.2903C22.2397 10.4201 22.0882 10.6047 21.9988 10.8207C21.9093 11.0366 21.8859 11.2742 21.9315 11.5035C21.9771 11.7328 22.0897 11.9433 22.255 12.1086C22.4203 12.2739 22.6309 12.3865 22.8601 12.4321C23.0894 12.4777 23.327 12.4543 23.543 12.3648C23.7589 12.2754 23.9435 12.1239 24.0733 11.9295C24.2032 11.7352 24.2725 11.5067 24.2725 11.2729C24.2725 10.9595 24.148 10.6589 23.9264 10.4372C23.7047 10.2156 23.4041 10.0911 23.0907 10.0911ZM8.90851 12.4548C9.14225 12.4548 9.37075 12.3855 9.56511 12.2556C9.75946 12.1257 9.91094 11.9412 10.0004 11.7252C10.0898 11.5093 10.1132 11.2716 10.0676 11.0424C10.022 10.8131 9.90948 10.6025 9.7442 10.4372C9.57891 10.272 9.36833 10.1594 9.13907 10.1138C8.90982 10.0682 8.67219 10.0916 8.45623 10.181C8.24028 10.2705 8.0557 10.422 7.92584 10.6163C7.79597 10.8107 7.72666 11.0392 7.72666 11.2729C7.72666 11.5864 7.85117 11.887 8.07281 12.1086C8.29445 12.3303 8.59506 12.4548 8.90851 12.4548Z" fill="#3368FF"/>
</svg>
