<svg width="121" height="120" viewBox="0 0 121 120" fill="none" xmlns="http://www.w3.org/2000/svg">
<defs>
<clipPath id="clip0_452_4696">
<rect width="120" height="120" fill="white" transform="translate(0.5)"/>
</clipPath>
</defs>
<g clip-path="url(#clip0_452_4696)">
<path d="M107.375 71.25H66.125C64.6332 71.25 63.2024 71.8426 62.1475 72.8975C61.0926 73.9524 60.5 75.3832 60.5 76.875V103.125C60.5 103.622 60.6975 104.099 61.0492 104.451C61.4008 104.802 61.8777 105 62.375 105H111.125C111.622 105 112.099 104.802 112.451 104.451C112.802 104.099 113 103.622 113 103.125V76.875C113 75.3832 112.407 73.9524 111.352 72.8975C110.298 71.8426 108.867 71.25 107.375 71.25Z" fill="#FCEDC7"/>
<path d="M39.875 43.125H24.875C23.8395 43.125 23 43.9645 23 45V56.25C23 57.2855 23.8395 58.125 24.875 58.125H39.875C40.9105 58.125 41.75 57.2855 41.75 56.25V45C41.75 43.9645 40.9105 43.125 39.875 43.125Z" fill="#FCEDC7"/>
<path d="M56.75 0H8C3.85786 0 0.5 3.35786 0.5 7.5V39.375C0.5 43.5171 3.85786 46.875 8 46.875H56.75C60.8921 46.875 64.25 43.5171 64.25 39.375V7.5C64.25 3.35786 60.8921 0 56.75 0Z" fill="#FCEDC7"/>
<path d="M47.375 20.625L36.125 9.375H19.25C18.7527 9.375 18.2758 9.57254 17.9242 9.92418C17.5725 10.2758 17.375 10.7527 17.375 11.25V37.5C17.375 37.9973 17.5725 38.4742 17.9242 38.8258C18.2758 39.1775 18.7527 39.375 19.25 39.375H45.5C45.9973 39.375 46.4742 39.1775 46.8258 38.8258C47.1775 38.4742 47.375 37.9973 47.375 37.5V20.625Z" fill="#FFD568"/>
<path d="M47.375 20.625H36.125V9.375L47.375 20.625Z" fill="#FFB600"/>
<path d="M64.25 35.625H0.5V39.375C0.5 41.3641 1.29018 43.2718 2.6967 44.6783C4.10322 46.0848 6.01088 46.875 8 46.875H56.75C58.7391 46.875 60.6468 46.0848 62.0533 44.6783C63.4598 43.2718 64.25 41.3641 64.25 39.375V35.625Z" fill="#FFB600"/>
<path d="M101.75 90L90.5 78.75H73.625C73.1277 78.75 72.6508 78.9475 72.2992 79.2992C71.9475 79.6508 71.75 80.1277 71.75 80.625V103.125C71.75 103.622 71.9475 104.099 72.2992 104.451C72.6508 104.802 73.1277 105 73.625 105H99.875C100.372 105 100.849 104.802 101.201 104.451C101.552 104.099 101.75 103.622 101.75 103.125V90Z" fill="#FFD568"/>
<path d="M101.75 90H90.5V78.75L101.75 90Z" fill="#FFB600"/>
<path d="M45.5 58.125H19.25C18.7527 58.125 18.2758 57.9275 17.9242 57.5758C17.5725 57.2242 17.375 56.7473 17.375 56.25C17.375 55.7527 17.5725 55.2758 17.9242 54.9242C18.2758 54.5725 18.7527 54.375 19.25 54.375H45.5C45.9973 54.375 46.4742 54.5725 46.8258 54.9242C47.1775 55.2758 47.375 55.7527 47.375 56.25C47.375 56.7473 47.1775 57.2242 46.8258 57.5758C46.4742 57.9275 45.9973 58.125 45.5 58.125Z" fill="#FFB600"/>
<path d="M34.25 43.125H30.5C30.0027 43.125 29.5258 42.9275 29.1742 42.5758C28.8225 42.2242 28.625 41.7473 28.625 41.25C28.625 40.7527 28.8225 40.2758 29.1742 39.9242C29.5258 39.5725 30.0027 39.375 30.5 39.375H34.25C34.7473 39.375 35.2242 39.5725 35.5758 39.9242C35.9275 40.2758 36.125 40.7527 36.125 41.25C36.125 41.7473 35.9275 42.2242 35.5758 42.5758C35.2242 42.9275 34.7473 43.125 34.25 43.125Z" fill="#FCEDC7"/>
<path d="M54.8747 82.5H37.9997V76.875H43.6247C43.983 76.8747 44.3337 76.7717 44.6352 76.5783C44.9368 76.3848 45.1767 76.1091 45.3264 75.7836C45.4761 75.4581 45.5294 75.0965 45.4801 74.7417C45.4307 74.3868 45.2807 74.0535 45.0478 73.7812L33.7978 60.6562C33.6168 60.4593 33.3968 60.3021 33.1518 60.1945C32.9069 60.087 32.6423 60.0314 32.3747 60.0314C32.1072 60.0314 31.8426 60.087 31.5976 60.1945C31.3526 60.3021 31.1327 60.4593 30.9516 60.6562L19.7016 73.7812C19.4687 74.0535 19.3187 74.3868 19.2693 74.7417C19.22 75.0965 19.2733 75.4581 19.423 75.7836C19.5728 76.1091 19.8126 76.3848 20.1142 76.5783C20.4158 76.7717 20.7664 76.8747 21.1247 76.875H26.7497V84.375C26.7527 86.8605 27.7414 89.2433 29.4989 91.0008C31.2564 92.7583 33.6392 93.747 36.1247 93.75H54.8747C55.372 93.75 55.8489 93.5525 56.2005 93.2008C56.5522 92.8492 56.7497 92.3723 56.7497 91.875V84.375C56.7497 83.8777 56.5522 83.4008 56.2005 83.0492C55.8489 82.6975 55.372 82.5 54.8747 82.5ZM99.7022 51.7163C99.5524 51.3907 99.3124 51.1148 99.0107 50.9214C98.7089 50.728 98.3581 50.6252 97.9997 50.625H92.3747V22.5C92.3717 20.0145 91.3831 17.6317 89.6255 15.8742C87.868 14.1167 85.4852 13.128 82.9997 13.125H69.8747C69.3774 13.125 68.9005 13.3225 68.5489 13.6742C68.1973 14.0258 67.9997 14.5027 67.9997 15V22.5C67.9997 22.9973 68.1973 23.4742 68.5489 23.8258C68.9005 24.1775 69.3774 24.375 69.8747 24.375H81.1247V50.625H75.4997C75.1414 50.6253 74.7908 50.7283 74.4892 50.9217C74.1876 51.1152 73.9478 51.3909 73.798 51.7164C73.6483 52.0419 73.595 52.4035 73.6443 52.7583C73.6937 53.1132 73.8437 53.4465 74.0766 53.7188L85.3266 66.8438C85.5026 67.049 85.7209 67.2137 85.9666 67.3266C86.2122 67.4395 86.4794 67.498 86.7497 67.498C87.0201 67.498 87.2872 67.4395 87.5329 67.3266C87.7785 67.2137 87.9968 67.049 88.1728 66.8438L99.4228 53.7188C99.6559 53.4466 99.8061 53.1133 99.8556 52.7584C99.9051 52.4035 99.8519 52.0418 99.7022 51.7163ZM118.625 103.125H54.8747C54.3774 103.125 53.9005 103.323 53.5489 103.674C53.1973 104.026 52.9997 104.503 52.9997 105V112.5C52.9997 114.489 53.7899 116.397 55.1964 117.803C56.6029 119.21 58.5106 120 60.4997 120H113C114.989 120 116.896 119.21 118.303 117.803C119.71 116.397 120.5 114.489 120.5 112.5V105C120.5 104.503 120.302 104.026 119.951 103.674C119.599 103.323 119.122 103.125 118.625 103.125Z" fill="#FFB600"/>
<path d="M105.5 103.125H68V108.75C68 109.745 68.3951 110.698 69.0983 111.402C69.8016 112.105 70.7554 112.5 71.75 112.5H101.75C102.745 112.5 103.698 112.105 104.402 111.402C105.105 110.698 105.5 109.745 105.5 108.75V103.125Z" fill="#FCEDC7"/>
</g>
</svg>
