<svg width="96" height="117" viewBox="0 0 96 117" fill="none" xmlns="http://www.w3.org/2000/svg">
<g clip-path="url(#clip0_3078_32555)">
<path d="M47.7531 106.484C47.4977 106.484 47.2424 106.484 46.987 106.228L26.0471 96.2693C15.3218 91.162 8.17163 79.9259 8.17163 67.9238V30.3852C8.17163 29.3638 8.93772 28.5977 9.95918 28.3423C34.9849 25.7887 45.9656 12.2544 46.2209 12.2544C46.987 11.2329 48.5192 11.2329 49.2853 12.2544C49.5407 12.5097 60.7767 25.7887 85.547 28.3423C86.5685 28.3423 87.3346 29.3638 87.3346 30.3852V67.9238C87.3346 79.9259 80.4398 90.9066 69.4591 96.2693L48.5192 106.228C48.5192 106.484 48.0085 106.484 47.7531 106.484ZM12.2575 32.1728V67.9238C12.2575 78.3937 18.3862 88.0976 27.8347 92.6942L47.7531 102.143L67.6715 92.6942C77.12 88.0976 83.2487 78.3937 83.2487 67.9238V32.1728C62.8196 29.6192 51.5836 20.1707 47.7531 16.3402C43.9226 20.426 32.6866 29.6192 12.2575 32.1728Z" fill="#1DB83A"/>
<path d="M47.7531 116.698C47.4978 116.698 47.2424 116.698 46.987 116.442L21.4506 104.185C8.42702 98.056 0 84.5217 0 70.2213V22.7235C0 21.7021 0.766093 20.936 1.78755 20.6806C32.4313 17.6162 46.221 0.762187 46.221 0.762187C46.987 -0.259271 48.5192 -0.259271 49.2853 0.762187C49.5407 1.01755 63.3304 17.6162 93.7187 20.6806C94.7402 20.6806 95.5063 21.7021 95.5063 22.7235V70.2213C95.5063 84.7771 87.0792 98.056 74.0557 104.44L48.5192 116.698C48.5192 116.442 48.0085 116.698 47.7531 116.698ZM3.83047 24.2557V69.9659C3.83047 82.9895 11.4914 94.9916 23.2382 100.61L47.7531 112.356L72.2681 100.61C84.0149 94.9916 91.6758 82.9895 91.6758 69.9659V24.2557C66.1394 21.1913 52.0943 9.18921 47.7531 4.84802C43.4119 9.18921 29.6223 21.1913 3.83047 24.2557Z" fill="#1DB83A"/>
<path d="M47.7531 83.5052C35.4956 83.5052 25.281 73.546 25.281 61.0331C25.281 59.5009 25.5364 57.7134 25.7917 56.1812C26.0471 55.1597 27.0686 54.3936 28.09 54.649C29.1115 54.9044 29.8776 55.9258 29.6222 56.9473C29.3668 58.2241 29.1115 59.5009 29.1115 60.7777C29.1115 70.9923 37.2831 79.164 47.4977 79.164C57.7123 79.164 66.3947 71.5031 66.3947 61.2885C66.3947 58.7348 65.8839 56.1812 64.8625 53.8829C64.3518 52.8615 64.8625 51.84 65.8839 51.3293C66.9054 50.8185 67.9269 51.3293 68.4376 52.3507C69.7144 55.1597 70.2251 58.2241 70.2251 61.2885C70.2251 73.546 60.2659 83.5052 47.7531 83.5052Z" fill="#1DB83A"/>
<path d="M34.4738 47.7463C33.963 47.7463 33.4523 47.491 32.9416 46.9803C32.1755 46.2142 32.4308 44.9373 33.1969 44.1712C37.2828 40.8515 42.3901 38.8086 47.7527 38.8086C51.5832 38.8086 55.1583 39.83 58.478 41.6176C59.4995 42.1283 59.7548 43.4052 59.2441 44.1712C58.7334 45.1927 57.4566 45.4481 56.6905 44.9373C53.8815 43.4052 50.8171 42.6391 47.7527 42.6391C43.4115 42.6391 39.0703 44.1712 35.7506 46.9803C35.4952 47.491 34.9845 47.7463 34.4738 47.7463Z" fill="#1DB83A"/>
<path d="M47.7531 68.4285C46.987 68.4285 46.4763 67.9178 45.9655 67.4071C42.1351 60.0015 32.4312 53.8728 27.0686 50.8084C26.0471 50.2977 25.7918 49.0208 26.3025 48.2548C26.8132 47.2333 28.09 46.9779 28.8561 47.4887C33.9634 50.2977 42.6458 55.9157 47.4977 62.8105C51.3282 56.6818 61.5428 42.3814 75.5878 38.2955C76.6093 38.0402 77.6307 38.5509 78.1414 39.5724C78.3968 40.5938 77.8861 41.6153 76.8646 42.126C60.5213 46.7226 49.5406 67.4071 49.5406 67.6624C49.2853 67.9178 48.5192 68.4285 47.7531 68.4285Z" fill="#1DB83A"/>
</g>
<defs>
<clipPath id="clip0_3078_32555">
<rect width="95.7616" height="116.702" fill="white"/>
</clipPath>
</defs>
</svg>
