<svg width="32" height="32" viewBox="0 0 32 32" fill="none" xmlns="http://www.w3.org/2000/svg">
<path d="M29.3339 10.4234C29.3403 10.3391 29.3403 10.2544 29.3339 10.1701L26.6672 3.50343C26.5631 3.2399 26.3777 3.01641 26.1379 2.86537C25.8982 2.71433 25.6166 2.64359 25.3339 2.66343H6.66724C6.4002 2.66317 6.13923 2.7431 5.91815 2.89287C5.69706 3.04264 5.52604 3.25534 5.42724 3.50343L2.76057 10.1701C2.75414 10.2544 2.75414 10.3391 2.76057 10.4234C2.71626 10.4976 2.68472 10.5788 2.66724 10.6634C2.68208 11.5851 2.93554 12.4872 3.4029 13.2817C3.87025 14.0762 4.53555 14.736 5.3339 15.1968V27.9968C5.3339 28.3504 5.47438 28.6895 5.72443 28.9396C5.97448 29.1896 6.31361 29.3301 6.66724 29.3301H25.3339C25.6875 29.3301 26.0267 29.1896 26.2767 28.9396C26.5268 28.6895 26.6672 28.3504 26.6672 27.9968V15.2501C27.4733 14.7847 28.1436 14.1165 28.6114 13.3119C29.0792 12.5072 29.3283 11.5942 29.3339 10.6634C29.3464 10.5839 29.3464 10.5029 29.3339 10.4234ZM17.3339 26.6634H14.6672V21.3301H17.3339V26.6634ZM24.0006 26.6634H20.0006V19.9968C20.0006 19.6431 19.8601 19.304 19.61 19.054C19.36 18.8039 19.0209 18.6634 18.6672 18.6634H13.3339C12.9803 18.6634 12.6411 18.8039 12.3911 19.054C12.141 19.304 12.0006 19.6431 12.0006 19.9968V26.6634H8.00057V15.9968C8.75986 15.9925 9.50948 15.8261 10.1993 15.5088C10.8891 15.1915 11.5032 14.7305 12.0006 14.1568C12.5011 14.7243 13.1166 15.1788 13.8062 15.4901C14.4959 15.8014 15.2439 15.9624 16.0006 15.9624C16.7572 15.9624 17.5052 15.8014 18.1949 15.4901C18.8846 15.1788 19.5001 14.7243 20.0006 14.1568C20.4979 14.7305 21.112 15.1915 21.8018 15.5088C22.4917 15.8261 23.2413 15.9925 24.0006 15.9968V26.6634ZM24.0006 13.3301C23.2933 13.3301 22.615 13.0491 22.115 12.549C21.6149 12.0489 21.3339 11.3707 21.3339 10.6634C21.3339 10.3098 21.1934 9.97067 20.9434 9.72062C20.6933 9.47057 20.3542 9.33009 20.0006 9.33009C19.6469 9.33009 19.3078 9.47057 19.0578 9.72062C18.8077 9.97067 18.6672 10.3098 18.6672 10.6634C18.6672 11.3707 18.3863 12.0489 17.8862 12.549C17.3861 13.0491 16.7078 13.3301 16.0006 13.3301C15.2933 13.3301 14.615 13.0491 14.115 12.549C13.6149 12.0489 13.3339 11.3707 13.3339 10.6634C13.3339 10.3098 13.1934 9.97067 12.9434 9.72062C12.6933 9.47057 12.3542 9.33009 12.0006 9.33009C11.6469 9.33009 11.3078 9.47057 11.0578 9.72062C10.8077 9.97067 10.6672 10.3098 10.6672 10.6634C10.6804 11.0136 10.6244 11.363 10.5025 11.6915C10.3806 12.0201 10.1952 12.3214 9.9569 12.5783C9.71856 12.8352 9.43196 13.0427 9.11345 13.1888C8.79494 13.335 8.45076 13.417 8.10057 13.4301C7.39333 13.4566 6.70451 13.2011 6.18566 12.7198C5.92875 12.4814 5.7213 12.1948 5.57516 11.8763C5.42901 11.5578 5.34703 11.2136 5.3339 10.8634L7.5739 5.33009H24.4272L26.6672 10.8634C26.6167 11.5354 26.3136 12.1634 25.8189 12.621C25.3241 13.0787 24.6745 13.332 24.0006 13.3301Z" fill="#3368FF"/>
</svg>
