<svg width="170" height="69" viewBox="0 0 170 69" fill="none" xmlns="http://www.w3.org/2000/svg">
    <rect x="0.5" y="0.5" width="169" height="68" rx="7.5" fill="white" stroke="#051237" />
    <path
        d="M79.144 16.796H81.874C82.2987 16.796 82.7017 16.8393 83.083 16.926C83.473 17.004 83.8153 17.1427 84.11 17.342C84.4133 17.5327 84.6517 17.7927 84.825 18.122C85.007 18.4427 85.098 18.8413 85.098 19.318C85.098 19.8207 85.0027 20.2367 84.812 20.566C84.6213 20.8953 84.3743 21.1553 84.071 21.346C83.7763 21.5367 83.4513 21.671 83.096 21.749C82.7407 21.827 82.4027 21.866 82.082 21.866H80.236V26H79.144V16.796ZM80.236 20.852H82.082C82.628 20.852 83.07 20.7307 83.408 20.488C83.7547 20.2367 83.928 19.851 83.928 19.331C83.928 18.811 83.7547 18.4297 83.408 18.187C83.07 17.9357 82.628 17.81 82.082 17.81H80.236V20.852ZM86.5901 20.696C86.9021 20.3753 87.2704 20.1413 87.6951 19.994C88.1284 19.838 88.5661 19.76 89.0081 19.76C89.9094 19.76 90.5594 19.9723 90.9581 20.397C91.3567 20.8217 91.5561 21.4673 91.5561 22.334V24.947C91.5561 25.1203 91.5647 25.3023 91.5821 25.493C91.5994 25.675 91.6211 25.844 91.6471 26H90.6721C90.6374 25.8613 90.6157 25.7097 90.6071 25.545C90.6071 25.3717 90.6071 25.22 90.6071 25.09H90.5811C90.3817 25.402 90.1131 25.6577 89.7751 25.857C89.4457 26.0563 89.0471 26.156 88.5791 26.156C88.2671 26.156 87.9724 26.117 87.6951 26.039C87.4264 25.961 87.1881 25.8483 86.9801 25.701C86.7807 25.545 86.6204 25.3543 86.4991 25.129C86.3777 24.9037 86.3171 24.6437 86.3171 24.349C86.3171 23.8463 86.4471 23.452 86.7071 23.166C86.9671 22.88 87.2877 22.6677 87.6691 22.529C88.0591 22.3903 88.4751 22.3037 88.9171 22.269C89.3677 22.2343 89.7794 22.217 90.1521 22.217H90.5421V22.035C90.5421 21.593 90.4077 21.2593 90.1391 21.034C89.8791 20.8087 89.5107 20.696 89.0341 20.696C88.7047 20.696 88.3797 20.7523 88.0591 20.865C87.7471 20.969 87.4697 21.1337 87.2271 21.359L86.5901 20.696ZM89.5281 23.075C88.8781 23.075 88.3624 23.166 87.9811 23.348C87.5997 23.53 87.4091 23.829 87.4091 24.245C87.4091 24.6263 87.5347 24.8993 87.7861 25.064C88.0461 25.22 88.3667 25.298 88.7481 25.298C89.0427 25.298 89.2984 25.2503 89.5151 25.155C89.7404 25.051 89.9267 24.9167 90.0741 24.752C90.2214 24.5873 90.3341 24.3967 90.4121 24.18C90.4901 23.9547 90.5334 23.7163 90.5421 23.465V23.075H89.5281ZM95.6453 27.391C95.5413 27.651 95.4329 27.885 95.3203 28.093C95.2163 28.3097 95.0863 28.4917 94.9303 28.639C94.7829 28.795 94.6009 28.912 94.3843 28.99C94.1763 29.0767 93.9206 29.12 93.6173 29.12C93.4699 29.12 93.3139 29.1113 93.1493 29.094C92.9933 29.0767 92.8459 29.0333 92.7073 28.964L92.8373 28.08C92.9413 28.1233 93.0496 28.1493 93.1623 28.158C93.2749 28.1753 93.4049 28.184 93.5523 28.184C93.8816 28.184 94.1243 28.093 94.2803 27.911C94.4363 27.729 94.5706 27.4863 94.6833 27.183L95.0993 26.039L92.5773 19.916H93.7603L95.6453 24.687H95.6713L97.4783 19.916H98.5833L95.6453 27.391ZM109.825 26H108.824L107.095 21.32H107.069L105.535 26H104.495L102.519 19.916H103.637L105.028 24.596H105.054L106.627 19.916H107.693L109.292 24.596H109.318L110.696 19.916H111.788L109.825 26ZM113.026 19.916H114.04V26H113.026V19.916ZM112.792 17.537C112.792 17.3377 112.861 17.1643 113 17.017C113.147 16.8697 113.325 16.796 113.533 16.796C113.741 16.796 113.914 16.8697 114.053 17.017C114.2 17.1643 114.274 17.3377 114.274 17.537C114.274 17.7537 114.204 17.9313 114.066 18.07C113.927 18.2087 113.749 18.278 113.533 18.278C113.316 18.278 113.138 18.2087 113 18.07C112.861 17.9313 112.792 17.7537 112.792 17.537ZM119.386 20.774H117.592V23.816C117.592 24.0153 117.596 24.2017 117.605 24.375C117.613 24.5397 117.648 24.687 117.709 24.817C117.769 24.9383 117.86 25.038 117.982 25.116C118.103 25.1853 118.276 25.22 118.502 25.22C118.649 25.22 118.801 25.2027 118.957 25.168C119.113 25.1333 119.26 25.0813 119.399 25.012L119.438 25.935C119.264 26.013 119.069 26.0693 118.853 26.104C118.645 26.1387 118.445 26.156 118.255 26.156C117.891 26.156 117.6 26.1083 117.384 26.013C117.167 25.9177 116.998 25.7833 116.877 25.61C116.755 25.4367 116.673 25.2243 116.63 24.973C116.595 24.713 116.578 24.427 116.578 24.115V20.774H115.252V19.916H116.578V18.187H117.592V19.916H119.386V20.774ZM120.641 16.172H121.655V20.761H121.681C121.75 20.6397 121.845 20.5227 121.967 20.41C122.088 20.2887 122.231 20.1803 122.396 20.085C122.569 19.9897 122.76 19.9117 122.968 19.851C123.176 19.7903 123.397 19.76 123.631 19.76C124.029 19.76 124.372 19.8207 124.658 19.942C124.952 20.0633 125.195 20.2323 125.386 20.449C125.576 20.6657 125.715 20.93 125.802 21.242C125.897 21.5453 125.945 21.879 125.945 22.243V26H124.931V22.347C124.931 21.8357 124.818 21.4327 124.593 21.138C124.367 20.8433 124.016 20.696 123.54 20.696C123.21 20.696 122.924 20.7523 122.682 20.865C122.448 20.9777 122.253 21.138 122.097 21.346C121.949 21.554 121.837 21.801 121.759 22.087C121.689 22.373 121.655 22.6893 121.655 23.036V26H120.641V16.172Z"
        fill="#21409A" />
    <path
        d="M82.18 38.6H78.14V35.84H89.34V38.6H85.3V50H82.18V38.6ZM90.1644 42.92C90.1644 41.7867 90.351 40.76 90.7244 39.84C91.111 38.92 91.6444 38.14 92.3244 37.5C93.0044 36.8467 93.811 36.3467 94.7444 36C95.6777 35.6533 96.6977 35.48 97.8044 35.48C98.911 35.48 99.931 35.6533 100.864 36C101.798 36.3467 102.604 36.8467 103.284 37.5C103.964 38.14 104.491 38.92 104.864 39.84C105.251 40.76 105.444 41.7867 105.444 42.92C105.444 44.0533 105.251 45.08 104.864 46C104.491 46.92 103.964 47.7067 103.284 48.36C102.604 49 101.798 49.4933 100.864 49.84C99.931 50.1867 98.911 50.36 97.8044 50.36C96.6977 50.36 95.6777 50.1867 94.7444 49.84C93.811 49.4933 93.0044 49 92.3244 48.36C91.6444 47.7067 91.111 46.92 90.7244 46C90.351 45.08 90.1644 44.0533 90.1644 42.92ZM93.4044 42.92C93.4044 43.5867 93.5044 44.2 93.7044 44.76C93.9177 45.3067 94.2177 45.7867 94.6044 46.2C94.991 46.6 95.451 46.9133 95.9844 47.14C96.531 47.3667 97.1377 47.48 97.8044 47.48C98.471 47.48 99.071 47.3667 99.6044 47.14C100.151 46.9133 100.618 46.6 101.004 46.2C101.391 45.7867 101.684 45.3067 101.884 44.76C102.098 44.2 102.204 43.5867 102.204 42.92C102.204 42.2667 102.098 41.66 101.884 41.1C101.684 40.54 101.391 40.06 101.004 39.66C100.618 39.2467 100.151 38.9267 99.6044 38.7C99.071 38.4733 98.471 38.36 97.8044 38.36C97.1377 38.36 96.531 38.4733 95.9844 38.7C95.451 38.9267 94.991 39.2467 94.6044 39.66C94.2177 40.06 93.9177 40.54 93.7044 41.1C93.5044 41.66 93.4044 42.2667 93.4044 42.92ZM107.685 35.84H110.805V41.72L116.305 35.84H120.385L114.085 42.42L120.925 50H116.565L110.805 43.28V50H107.685V35.84ZM121.239 42.92C121.239 41.7867 121.425 40.76 121.799 39.84C122.185 38.92 122.719 38.14 123.399 37.5C124.079 36.8467 124.885 36.3467 125.819 36C126.752 35.6533 127.772 35.48 128.879 35.48C129.985 35.48 131.005 35.6533 131.939 36C132.872 36.3467 133.679 36.8467 134.359 37.5C135.039 38.14 135.565 38.92 135.939 39.84C136.325 40.76 136.519 41.7867 136.519 42.92C136.519 44.0533 136.325 45.08 135.939 46C135.565 46.92 135.039 47.7067 134.359 48.36C133.679 49 132.872 49.4933 131.939 49.84C131.005 50.1867 129.985 50.36 128.879 50.36C127.772 50.36 126.752 50.1867 125.819 49.84C124.885 49.4933 124.079 49 123.399 48.36C122.719 47.7067 122.185 46.92 121.799 46C121.425 45.08 121.239 44.0533 121.239 42.92ZM124.479 42.92C124.479 43.5867 124.579 44.2 124.779 44.76C124.992 45.3067 125.292 45.7867 125.679 46.2C126.065 46.6 126.525 46.9133 127.059 47.14C127.605 47.3667 128.212 47.48 128.879 47.48C129.545 47.48 130.145 47.3667 130.679 47.14C131.225 46.9133 131.692 46.6 132.079 46.2C132.465 45.7867 132.759 45.3067 132.959 44.76C133.172 44.2 133.279 43.5867 133.279 42.92C133.279 42.2667 133.172 41.66 132.959 41.1C132.759 40.54 132.465 40.06 132.079 39.66C131.692 39.2467 131.225 38.9267 130.679 38.7C130.145 38.4733 129.545 38.36 128.879 38.36C128.212 38.36 127.605 38.4733 127.059 38.7C126.525 38.9267 126.065 39.2467 125.679 39.66C125.292 40.06 124.992 40.54 124.779 41.1C124.579 41.66 124.479 42.2667 124.479 42.92Z"
        fill="#21409A" />
    <path
        d="M52.9772 23.5515C52.6689 23.77 52.1626 24.1109 51.4604 24.5702C50.7805 25.0153 49.8129 25.6706 48.5471 26.5423L47.0609 27.5406L46.33 28.0428C45.9769 28.294 45.5522 28.4266 45.1011 28.4266C44.8887 28.4266 44.7193 28.4083 44.6131 28.3797C44.2681 28.3042 44.0068 28.198 43.8006 28.049L36.0531 22.986C36.0531 25.6645 36.051 27.7427 36.047 29.3392L37.9027 30.8581L45.0316 36.6886L52.0912 30.7417L53.804 29.2984C53.802 26.9302 53.7979 25.0377 53.7877 23.0064C53.5488 23.1677 53.2814 23.3494 52.9772 23.5515Z"
        fill="#FFB71B" />
    <path
        d="M61.8414 16.002H58.4974H52.8323V16H37.1739V16.002H34.4709H31.5066H30.9432H28.1626C25.8639 16.002 24 17.8659 24 20.1647V26.6955C24 28.9942 25.8639 30.8581 28.1626 30.8581H30.9432H31.5066H31.9905L32.0129 19.5522C32.0129 18.9377 32.1987 18.4519 32.5478 18.1273C32.8112 17.8721 33.2848 17.5658 34.0442 17.5658C34.475 17.5658 34.871 17.6659 35.2222 17.8619L35.2569 17.8823L35.2896 17.9047L45.0623 24.313L54.5696 17.8904C54.9125 17.6332 55.3372 17.5026 55.8312 17.5026C56.6274 17.5026 57.099 17.8353 57.3848 18.1538C57.6686 18.4947 57.8115 18.8581 57.8115 19.2317V19.3787L57.836 30.8602H58.4934H61.8374C64.1361 30.8602 66 28.9963 66 26.6975V20.1647C66.0041 17.8659 64.1402 16.002 61.8414 16.002Z"
        fill="#21409A" />
    <path
        d="M44.9479 28.4226C44.8112 28.4164 44.6907 28.4022 44.6131 28.3817C44.2681 28.3062 44.0068 28.2 43.8006 28.051L36.0531 22.986C36.0531 25.6645 36.051 27.7427 36.047 29.3392L37.9027 30.8581L44.95 36.6213V28.4226H44.9479Z"
        fill="#FF8303" />
    <path
        d="M51.6033 35.97C51.3542 36.1885 50.9479 36.5294 50.3845 36.9908C49.8394 37.4359 49.0657 38.0912 48.0531 38.9609L47.1099 39.753V46.9922C47.1099 48.0027 46.3974 48.8459 45.4501 49.05C45.4175 49.0602 45.3869 49.0684 45.3603 49.0745C45.2154 49.1133 45.0561 49.1337 44.8744 49.1337C44.4784 49.1337 44.0987 49.0112 43.772 48.7785C43.5046 48.5866 43.3086 48.3396 43.1861 48.0476C43.0065 47.7373 42.9003 47.378 42.9003 46.9922V39.7366L37.1759 35.0677V42.3641V47.821C37.1759 50.5893 39.4195 52.835 42.1899 52.835H47.8224C50.5907 52.835 52.8363 50.5893 52.8363 47.821V42.3641V34.9391C52.5117 35.2086 52.1096 35.5454 51.6033 35.97Z"
        fill="#21409A" />
</svg>
