<svg width="56" height="56" viewBox="0 0 56 56" fill="none" xmlns="http://www.w3.org/2000/svg">
<circle cx="28" cy="28" r="26.6" fill="#50AF95" stroke="white" stroke-width="2.8"/>
<path fill-rule="evenodd" clip-rule="evenodd" d="M31.3363 29.2101C31.1457 29.2244 30.1608 29.2832 27.964 29.2832C26.2167 29.2832 24.9761 29.2308 24.5408 29.2101C17.7883 28.9131 12.7481 27.7376 12.7481 26.3302C12.7481 24.9229 17.7883 23.749 24.5408 23.4472V28.0394C24.9824 28.0712 26.2468 28.1458 27.9942 28.1458C30.0909 28.1458 31.1409 28.0585 31.3299 28.041V23.4504C38.0682 23.7506 43.0972 24.926 43.0972 26.3302C43.0972 27.7344 38.0697 28.9099 31.3299 29.2085L31.3363 29.2101ZM31.3363 22.9754V18.8661H40.7399V12.5996H15.1372V18.8661H24.5393V22.9738C16.8972 23.3249 11.1501 24.8387 11.1501 26.6527C11.1501 28.4667 16.8972 29.9789 24.5393 30.3316V43.4999H31.3347V30.3268C38.9593 29.9757 44.6968 28.4635 44.6968 26.6511C44.6968 24.8387 38.964 23.3265 31.3347 22.9738L31.3363 22.9754Z" fill="white"/>
</svg>
