<svg width="56" height="56" viewBox="0 0 56 56" fill="none" xmlns="http://www.w3.org/2000/svg">
<g clip-path="url(#clip0_435_5669)">
<path d="M28 1.4C42.6919 1.4 54.6 13.3081 54.6 28C54.6 42.6919 42.6919 54.6 28 54.6C13.3081 54.6 1.4 42.6919 1.4 28C1.4 13.3081 13.3081 1.4 28 1.4Z" fill="#F0B90B" stroke="white" stroke-width="2.8"/>
<path d="M15.3889 28.0002L15.4091 35.404L21.7001 39.1059V43.4406L11.7273 37.5915V25.8351L15.3889 28.0002ZM15.3889 20.5963V24.9108L11.7251 22.7434V18.429L15.3889 16.2617L19.0706 18.429L15.3889 20.5963ZM24.3273 18.429L27.9911 16.2617L31.6729 18.429L27.9911 20.5963L24.3273 18.429Z" fill="white"/>
<path d="M18.0364 33.8694V29.5348L21.7002 31.7021V36.0165L18.0364 33.8694ZM24.3274 40.6585L27.9912 42.8258L31.6729 40.6585V44.9729L27.9912 47.1402L24.3274 44.9729V40.6585ZM36.9274 18.429L40.5912 16.2617L44.2729 18.429V22.7435L40.5912 24.9108V20.5963L36.9274 18.429ZM40.5912 35.404L40.6114 28.0002L44.2752 25.8329V37.5893L34.3024 43.4383V39.1037L40.5912 35.404Z" fill="white"/>
<path d="M37.9638 33.8698L34.3 36.0169V31.7025L37.9638 29.5352V33.8698Z" fill="white"/>
<path d="M37.9639 22.1312L37.9841 26.4658L31.6752 30.1677V37.5895L28.0114 39.7366L24.3476 37.5895V30.1677L18.0386 26.4658V22.1312L21.7181 19.9639L27.9889 23.6837L34.2979 19.9639L37.9796 22.1312H37.9639ZM18.0364 14.7296L27.9912 8.86035L37.9639 14.7296L34.3002 16.8969L27.9912 13.177L21.7002 16.8969L18.0364 14.7296Z" fill="white"/>
</g>
<defs>
<clipPath id="clip0_435_5669">
<rect width="56" height="56" fill="white"/>
</clipPath>
</defs>
</svg>
